<?xml version="1.0" encoding="utf-8"?>
<!-- Generator: Adobe Illustrator 25.0.0, SVG Export Plug-In . SVG Version: 6.00 Build 0)  -->
<svg version="1.1"
	 id="svg13" inkscape:version="0.92.4 (5da689c313, 2019-01-14)" sodipodi:docname="Acreditacion.svg" xmlns:cc="http://creativecommons.org/ns#" xmlns:dc="http://purl.org/dc/elements/1.1/" xmlns:inkscape="http://www.inkscape.org/namespaces/inkscape" xmlns:rdf="http://www.w3.org/1999/02/22-rdf-syntax-ns#" xmlns:sodipodi="http://sodipodi.sourceforge.net/DTD/sodipodi-0.dtd" xmlns:svg="http://www.w3.org/2000/svg"
	 xmlns="http://www.w3.org/2000/svg" xmlns:xlink="http://www.w3.org/1999/xlink" x="0px" y="0px" viewBox="0 0 150 150"
	 style="enable-background:new 0 0 150 150;" xml:space="preserve">
<style type="text/css">
	.st0{fill:#AA0541;}
	.st1{fill:#FFFFFF;}
</style>
<sodipodi:namedview  bordercolor="#666666" borderopacity="1" gridtolerance="10" guidetolerance="10" id="namedview15" inkscape:current-layer="svg13" inkscape:cx="34.697225" inkscape:cy="62.831124" inkscape:pageopacity="0" inkscape:pageshadow="2" inkscape:window-height="731" inkscape:window-maximized="1" inkscape:window-width="1366" inkscape:window-x="0" inkscape:window-y="0" inkscape:zoom="2.6738972" objecttolerance="10" pagecolor="#ffffff" showgrid="false">
	<inkscape:grid  id="grid834" type="xygrid"></inkscape:grid>
</sodipodi:namedview>
<circle id="path5116" class="st0" cx="75.3" cy="74.8" r="72.5"/>
<path id="path5114" inkscape:connector-curvature="0" class="st1" d="M38.5,112.9c-1.8-0.7-3.1-2.3-3.4-4.3c-0.3-1.4-0.3-66,0-67.6
	c0.3-2.1,1.6-3.7,3.5-4.4c0.9-0.3,1.2-0.3,28.6-0.3c27.6,0,27.7,0,28.6,0.4c1.1,0.4,2.4,1.6,3,2.8l0.4,0.8l0,17.8l0,17.8H98h-1.2
	l0-17.3c0-16.4,0-17.3-0.3-17.9c-0.4-0.8-0.9-1.3-1.7-1.7c-0.6-0.2-3.6-0.3-27.6-0.3c-19.7,0-27.1,0.1-27.6,0.2
	c-0.7,0.2-1.6,1.1-1.9,1.8c-0.2,0.5-0.2,5.9-0.2,34.1c0,23.3,0.1,33.7,0.2,34.1c0.3,0.7,1,1.4,1.8,1.8c0.6,0.3,1.7,0.3,26.5,0.3
	l25.9,0v1.2v1.2l-26.2,0C39.8,113.3,39.3,113.3,38.5,112.9L38.5,112.9z M97.9,110.6c-3.6-0.5-7.5-2.5-9.8-5.2
	C84.1,101,83,94.9,85,89.3c1.5-4.1,4.9-7.6,9-9.2c2-0.8,3.5-1.1,5.9-1.1c2.7,0,4.5,0.4,6.9,1.6c8.6,4.2,11.6,15.1,6.2,23.1
	C109.8,108.6,103.7,111.3,97.9,110.6z M102.6,98.1c2.7-3.4,5-6.5,5.2-6.8c0.4-0.6,0.4-1.8,0-2.5c-0.5-1.1-1.8-1.6-3-1.2
	c-0.8,0.2-1.3,0.7-4.5,4.9c-2.5,3.2-2.5,3.2-2.8,2.9c-1.6-2.3-1.9-2.7-2.6-3c-1.1-0.5-1.9-0.3-2.8,0.5c-0.7,0.7-1,1.6-0.7,2.4
	c0.2,0.5,5.9,9,6.1,9C97.7,104.3,99.9,101.5,102.6,98.1L102.6,98.1z M49,97.5v-1.3h11.2h11.2v1.3v1.3H60.3H49V97.5z M49,88.5v-1.2
	h11.2h11.2v1.2v1.2H60.3H49V88.5z M49,80.1v-1.3h18.1h18.1v1.3v1.3H67.1H49V80.1z M49,71.1v-1.2h18.1h18.1v1.2v1.2H67.1H49V71.1z
	 M49,62.7v-1.3h18.1h18.1v1.3V64H67.1H49V62.7z M49,53.7v-1.2h18.1h18.1v1.2v1.2H67.1H49V53.7z"/>
</svg>
