<?xml version="1.0" encoding="UTF-8" standalone="no"?>
<!-- Created with Inkscape (http://www.inkscape.org/) -->

<svg
   version="1.1"
   id="svg1"
   width="1919.3912"
   height="1919.571"
   viewBox="0 0 1919.3912 1919.571"
   sodipodi:docname="envelope-4313721_1920.png"
   xmlns:inkscape="http://www.inkscape.org/namespaces/inkscape"
   xmlns:sodipodi="http://sodipodi.sourceforge.net/DTD/sodipodi-0.dtd"
   xmlns="http://www.w3.org/2000/svg"
   xmlns:svg="http://www.w3.org/2000/svg">
  <defs
     id="defs1" />
  <sodipodi:namedview
     id="namedview1"
     pagecolor="#ffffff"
     bordercolor="#000000"
     borderopacity="0.25"
     inkscape:showpageshadow="2"
     inkscape:pageopacity="0.0"
     inkscape:pagecheckerboard="0"
     inkscape:deskcolor="#d1d1d1" />
  <g
     inkscape:groupmode="layer"
     inkscape:label="Image"
     id="g1"
     transform="translate(-2008.4867,-36.554398)">
    <g
       id="g2"
       transform="translate(2020.0948,6.0663507)">
      <path
         style="fill:#fde2a4"
         d="m 1008.3675,1227.3318 -34.99997,-0.5391 35.80897,-0.2304 c 23.676,-0.1524 35.5997,0.1083 35.191,0.7695 -0.3399,0.55 -0.7039,0.8962 -0.809,0.7695 -0.105,-0.1268 -15.941,-0.4731 -35.191,-0.7695 z m -42.74997,-37.7498 c 23.7875,-0.1493 62.71247,-0.1493 86.49997,0 23.7875,0.1494 4.325,0.2716 -43.25,0.2716 -47.57497,0 -67.03747,-0.1222 -43.24997,-0.2716 z M 755.21545,1063.0857 c -0.2536,-0.4103 112.8126,-0.7461 251.25825,-0.7461 138.4456,0 251.4943,0.225 251.2193,0.5 -0.8151,0.8151 -501.97419,1.0605 -502.47755,0.2461 z m -41.19809,-34.5039 -0.14983,-3.25 295.24997,0.2483 295.25,0.2483 -294.6837,0.2533 -294.68375,0.2534 -0.41643,2.7483 c -0.38728,2.556 -0.42692,2.5209 -0.56626,-0.5016 z m -0.14983,-69.25004 v -19 l 305.24997,0.24837 305.25,0.24837 -304.75,0.25325 -304.74997,0.25325 v 18.00161 18.0016 l 304.90447,-0.25323 c 167.6975,-0.13927 304.696,0.0843 304.441,0.49678 -0.2549,0.4125 -137.6869,0.75 -305.4045,0.75 H 713.86753 Z m 660.48577,-125 c 0,-74.525 0.1189,-105.0125 0.2641,-67.75 0.1453,37.2625 0.1453,98.2375 0,135.5 -0.1452,37.2625 -0.2641,6.775 -0.2641,-67.75 z m -660.48577,40 v -19 l 305.24997,0.24837 305.25,0.24837 -304.75,0.25325 -304.74997,0.25325 v 17.99676 17.99676 l 304.74997,0.25324 304.75,0.25325 -305.25,0.24837 -305.24997,0.24838 z m 0,-85 v -19 h 304.94097 c 167.7176,0 305.1496,0.3375 305.4045,0.75 0.255,0.4125 -136.7435,0.63604 -304.441,0.49677 L 714.86753,771.3253 v 18.00161 18.00161 l 304.74997,0.25324 304.75,0.25325 -305.25,0.24837 -305.24997,0.24838 z"
         id="path8" />
      <path
         style="fill:#a6d9e8"
         d="m 916.64396,1949.5983 c 2.35204,-0.2113 5.95204,-0.2083 8,0.01 2.04796,0.2148 0.12357,0.3877 -4.27643,0.384 -4.4,0 -6.07561,-0.1794 -3.72357,-0.3906 z m 58.47357,0 c 2.0625,-0.2158 5.4375,-0.2158 7.5,0 2.0625,0.2157 0.375,0.3923 -3.75,0.3923 -4.125,0 -5.8125,-0.1766 -3.75,-0.3923 z m -79.75,-0.9193 c -2.2,-0.1713 -10.975,-0.7974 -19.5,-1.3913 C 723.74724,1936.696 570.77001,1886.6848 439.59232,1804.6661 355.6607,1752.1879 278.65593,1685.4266 214.28708,1609.3318 102.93916,1477.6997 28.833763,1317.2058 0.96620545,1147.3318 -7.9147576,1093.1955 -11.572118,1047.8197 -11.607635,991.33176 c -0.02524,-40.13785 0.955519,-61.03853 4.551688,-97 C 9.7271864,726.50142 68.922206,569.3997 167.21138,431.83176 213.41292,367.16694 270.80635,305.31725 332.44511,253.76857 480.09493,130.2886 660.55395,54.424114 851.86753,35.404787 916.05885,29.023245 975.47881,28.85792 1038.8675,34.884494 1232.77,53.319438 1414.1062,129.00578 1563.29,253.76857 c 42.7966,35.79097 85.3497,78.34411 121.1407,121.14076 118.7355,141.97667 193.5369,314.31641 215.8986,497.42243 4.2553,34.84428 8.0203,90.34214 7.3644,108.55409 l -0.3262,9.05409 -371,-264.30828 c -204.05,-145.36955 -374.15,-266.88029 -378,-270.02388 -61.3882,-50.12443 -94.1301,-73.88666 -121.6976,-88.32139 -7.3163,-3.8309 -16.1393,-9.03184 -19.6066,-11.55765 l -6.3043,-4.59237 1.5543,3.71982 c 2.1215,5.07743 2.0974,5.13309 -2.5396,5.87459 -44.63507,7.13742 -240.5291,171.60939 -506.22803,425.02731 -20.80202,19.84051 -39.76418,37.64867 -42.13812,39.57367 -6.09057,4.93875 -19.85679,20.10364 -24.62984,27.13225 -6.12498,9.01944 -12.61097,23.25005 -15.66404,34.36775 l -2.74614,10 -0.29471,293.00004 c -0.2139,212.6658 0.013,295.1674 0.82742,300.9053 4.05114,28.5399 19.42316,54.9086 41.46729,71.1317 4.36277,3.2107 6.10978,4.7186 139,119.9772 50.05,43.4094 131.725,114.2381 181.5,157.3969 120.98692,104.9052 121.13739,105.036 123.97727,107.7347 l 2.47727,2.3542 -3.97727,-0.1681 c -2.1875,-0.092 -5.77727,-0.3083 -7.97727,-0.4797 z m 98.22769,-0.074 c 1.77524,-0.2209 4.92524,-0.2245 6.99998,-0.01 2.0748,0.2164 0.6223,0.3972 -3.22767,0.4016 -3.85,0 -5.54754,-0.1727 -3.77231,-0.3936 z m 18.52228,-0.9945 c 1.5125,-0.2291 3.9875,-0.2291 5.5,0 1.5125,0.2291 0.275,0.4166 -2.75,0.4166 -3.025,0 -4.2625,-0.1875 -2.75,-0.4166 z m 13.5,-0.9895 c 1.2375,-0.2383 3.2625,-0.2383 4.5,0 1.2375,0.2384 0.225,0.4334 -2.25,0.4334 -2.475,0 -3.4875,-0.195 -2.25,-0.4334 z m 12.0117,-1.0015 c 1.2439,-0.2392 3.0439,-0.2301 4,0.02 0.9561,0.2503 -0.062,0.446 -2.2617,0.4349 -2.2,-0.011 -2.9822,-0.2159 -1.7383,-0.4551 z m 10.4883,-0.9821 c 0.9625,-0.2515 2.5375,-0.2515 3.5,0 0.9625,0.2516 0.175,0.4574 -1.75,0.4574 -1.925,0 -2.7125,-0.2058 -1.75,-0.4574 z m 9.0191,-1.0036 c 0.9729,-0.2536 2.3229,-0.2369 3,0.037 0.677,0.2739 -0.1191,0.4814 -1.7691,0.461 -1.65,-0.02 -2.2039,-0.2445 -1.2309,-0.498 z m 7.9809,-0.9964 c 0.9625,-0.2515 2.5375,-0.2515 3.5,0 0.9625,0.2516 0.175,0.4574 -1.75,0.4574 -1.925,0 -2.7125,-0.2058 -1.75,-0.4574 z m 8.5,-0.9729 c 0.6875,-0.2774 1.8125,-0.2774 2.5,0 0.6875,0.2774 0.125,0.5044 -1.25,0.5044 -1.375,0 -1.9375,-0.227 -1.25,-0.5044 z m 7.5191,-1.0307 c 0.9729,-0.2536 2.3229,-0.2369 3,0.037 0.677,0.2739 -0.1191,0.4814 -1.7691,0.461 -1.65,-0.02 -2.2039,-0.2445 -1.2309,-0.498 z m 6.4809,-0.9693 c 0.6875,-0.2774 1.8125,-0.2774 2.5,0 0.6875,0.2774 0.125,0.5044 -1.25,0.5044 -1.375,0 -1.9375,-0.227 -1.25,-0.5044 z m 7,-1 c 0.6875,-0.2774 1.8125,-0.2774 2.5,0 0.6875,0.2774 0.125,0.5044 -1.25,0.5044 -1.375,0 -1.9375,-0.227 -1.25,-0.5044 z m 6,-1 c 0.6875,-0.2774 1.8125,-0.2774 2.5,0 0.6875,0.2774 0.125,0.5044 -1.25,0.5044 -1.375,0 -1.9375,-0.227 -1.25,-0.5044 z m 7.0625,-1.0209 c 0.7219,-0.2888 1.5844,-0.2533 1.9167,0.079 0.3323,0.3323 -0.2583,0.5686 -1.3125,0.5252 -1.1649,-0.048 -1.4019,-0.2849 -0.6042,-0.6042 z m 6,-1 c 0.7219,-0.2888 1.5844,-0.2533 1.9167,0.079 0.3323,0.3323 -0.2583,0.5686 -1.3125,0.5252 -1.1649,-0.048 -1.4019,-0.2849 -0.6042,-0.6042 z m 4.9375,-0.9791 c 0.6875,-0.2774 1.8125,-0.2774 2.5,0 0.6875,0.2774 0.125,0.5044 -1.25,0.5044 -1.375,0 -1.9375,-0.227 -1.25,-0.5044 z m 6.0625,-1.0209 c 0.7219,-0.2888 1.5844,-0.2533 1.9167,0.079 0.3323,0.3323 -0.2583,0.5686 -1.3125,0.5252 -1.1649,-0.048 -1.4019,-0.2849 -0.6042,-0.6042 z m 5,-1 c 0.7219,-0.2888 1.5844,-0.2533 1.9167,0.079 0.3323,0.3323 -0.2583,0.5686 -1.3125,0.5252 -1.1649,-0.048 -1.4019,-0.2849 -0.6042,-0.6042 z m 5,-1 c 0.7219,-0.2888 1.5844,-0.2533 1.9167,0.079 0.3323,0.3323 -0.2583,0.5686 -1.3125,0.5252 -1.1649,-0.048 -1.4019,-0.2849 -0.6042,-0.6042 z m 5,-1 c 0.7219,-0.2888 1.5844,-0.2533 1.9167,0.079 0.3323,0.3323 -0.2583,0.5686 -1.3125,0.5252 -1.1649,-0.048 -1.4019,-0.2849 -0.6042,-0.6042 z m 5,-1 c 0.7219,-0.2888 1.5844,-0.2533 1.9167,0.079 0.3323,0.3323 -0.2583,0.5686 -1.3125,0.5252 -1.1649,-0.048 -1.4019,-0.2849 -0.6042,-0.6042 z m 9,-2 c 0.7219,-0.2888 1.5844,-0.2533 1.9167,0.079 0.3323,0.3323 -0.2583,0.5686 -1.3125,0.5252 -1.1649,-0.048 -1.4019,-0.2849 -0.6042,-0.6042 z m 5,-1 c 0.7219,-0.2888 1.5844,-0.2533 1.9167,0.079 0.3323,0.3323 -0.2583,0.5686 -1.3125,0.5252 -1.1649,-0.048 -1.4019,-0.2849 -0.6042,-0.6042 z m 13,-3 c 0.7219,-0.2888 1.5844,-0.2533 1.9167,0.079 0.3323,0.3323 -0.2583,0.5686 -1.3125,0.5252 -1.1649,-0.048 -1.4019,-0.2849 -0.6042,-0.6042 z m 4,-1 c 0.7219,-0.2888 1.5844,-0.2533 1.9167,0.079 0.3323,0.3323 -0.2583,0.5686 -1.3125,0.5252 -1.1649,-0.048 -1.4019,-0.2849 -0.6042,-0.6042 z m 4,-1 c 0.7219,-0.2888 1.5844,-0.2533 1.9167,0.079 0.3323,0.3323 -0.2583,0.5686 -1.3125,0.5252 -1.1649,-0.048 -1.4019,-0.2849 -0.6042,-0.6042 z m 4,-1 c 0.7219,-0.2888 1.5844,-0.2533 1.9167,0.079 0.3323,0.3323 -0.2583,0.5686 -1.3125,0.5252 -1.1649,-0.048 -1.4019,-0.2849 -0.6042,-0.6042 z m 4,-1 c 0.7219,-0.2888 1.5844,-0.2533 1.9167,0.079 0.3323,0.3323 -0.2583,0.5686 -1.3125,0.5252 -1.1649,-0.048 -1.4019,-0.2849 -0.6042,-0.6042 z m 339.1875,-163.6944 c 0,-0.2077 0.7875,-0.9952 1.75,-1.75 1.5861,-1.2439 1.6215,-1.2085 0.3776,0.3776 -1.3064,1.6657 -2.1276,2.1954 -2.1276,1.3724 z m 13,-10 c 0,-0.2077 0.7875,-0.9952 1.75,-1.75 1.5861,-1.2439 1.6215,-1.2085 0.3776,0.3776 -1.3064,1.6657 -2.1276,2.1954 -2.1276,1.3724 z m 6.5,-5.6224 c 0.9955,-1.1 2.035,-2 2.31,-2 0.275,0 -0.3145,0.9 -1.31,2 -0.9955,1.1 -2.0349,2 -2.3099,2 -0.275,0 0.3144,-0.9 1.3099,-2 z m 9.5,-7.3776 c 0,-0.2077 0.7875,-0.9952 1.75,-1.75 1.5861,-1.2439 1.6215,-1.2085 0.3776,0.3776 -1.3064,1.6657 -2.1276,2.1954 -2.1276,1.3724 z m 6.5,-5.6224 c 0.9955,-1.1 2.035,-2 2.31,-2 0.275,0 -0.3145,0.9 -1.31,2 -0.9955,1.1 -2.0349,2 -2.3099,2 -0.275,0 0.3144,-0.9 1.3099,-2 z m 5.5,-4.3776 c 0,-0.2077 0.7875,-0.9952 1.75,-1.75 1.5861,-1.2439 1.6215,-1.2085 0.3776,0.3776 -1.3064,1.6657 -2.1276,2.1954 -2.1276,1.3724 z m 8,-7.1224 c 1.2918,-1.375 2.5737,-2.5 2.8487,-2.5 0.275,0 -0.5569,1.125 -1.8487,2.5 -1.2917,1.375 -2.5736,2.5 -2.8486,2.5 -0.275,0 0.5569,-1.125 1.8486,-2.5 z m 6,-4.813 c 0,-0.1721 1.4625,-1.6346 3.25,-3.25 l 3.25,-2.937 -2.9371,3.25 c -2.7377,3.0294 -3.5629,3.7096 -3.5629,2.937 z m 12,-11.187 c 1.8658,-1.925 3.6174,-3.5 3.8924,-3.5 0.275,0 -1.0266,1.575 -2.8924,3.5 -1.8658,1.925 -3.6173,3.5 -3.8923,3.5 -0.275,0 1.0265,-1.575 2.8923,-3.5 z m 16,-15 c 3.5433,-3.575 6.6673,-6.5 6.9423,-6.5 0.275,0 -2.399,2.925 -5.9423,6.5 -3.5432,3.575 -6.6672,6.5 -6.9422,6.5 -0.275,0 2.399,-2.925 5.9422,-6.5 z m 24,-23.7751 c 0,-0.1512 3.4875,-3.6387 7.75,-7.75 l 7.75,-7.4749 -7.4749,7.75 c -6.9426,7.198 -8.0251,8.2062 -8.0251,7.4749 z m 23,-24.2249 c 1.8658,-1.925 3.6174,-3.5 3.8924,-3.5 0.275,0 -1.0266,1.575 -2.8924,3.5 -1.8658,1.925 -3.6173,3.5 -3.8923,3.5 -0.275,0 1.0265,-1.575 2.8923,-3.5 z m 6,-6.813 c 0,-0.1721 1.4625,-1.6346 3.25,-3.25 l 3.25,-2.937 -2.9371,3.25 c -2.7377,3.0294 -3.5629,3.7096 -3.5629,2.937 z m 10,-11.187 c 1.2918,-1.375 2.5737,-2.5 2.8487,-2.5 0.275,0 -0.5569,1.125 -1.8487,2.5 -1.2917,1.375 -2.5736,2.5 -2.8486,2.5 -0.275,0 0.5569,-1.125 1.8486,-2.5 z m 5,-5.8776 c 0,-0.2077 0.7875,-0.9952 1.75,-1.75 1.5861,-1.2439 1.6215,-1.2085 0.3776,0.3776 -1.3064,1.6657 -2.1276,2.1954 -2.1276,1.3724 z m 6.5,-7.6224 c 0.9955,-1.1 2.035,-2 2.31,-2 0.275,0 -0.3145,0.9 -1.31,2 -0.9955,1.1 -2.0349,2 -2.3099,2 -0.275,0 0.3144,-0.9 1.3099,-2 z m 3.5,-4.3776 c 0,-0.2077 0.7875,-0.9952 1.75,-1.75 1.5861,-1.2439 1.6215,-1.2085 0.3776,0.3776 -1.3064,1.6657 -2.1276,2.1954 -2.1276,1.3724 z m 4,-5 c 0,-0.2077 0.7875,-0.9952 1.75,-1.75 1.5861,-1.2439 1.6215,-1.2085 0.3776,0.3776 -1.3064,1.6657 -2.1276,2.1954 -2.1276,1.3724 z m 5,-6 c 0,-0.2077 0.7875,-0.9952 1.75,-1.75 1.5861,-1.2439 1.6215,-1.2085 0.3776,0.3776 -1.3064,1.6657 -2.1276,2.1954 -2.1276,1.3724 z m 4,-5 c 0,-0.2077 0.7875,-0.9952 1.75,-1.75 1.5861,-1.2439 1.6215,-1.2085 0.3776,0.3776 -1.3064,1.6657 -2.1276,2.1954 -2.1276,1.3724 z m 10,-13 c 0,-0.2077 0.7875,-0.9952 1.75,-1.75 1.5861,-1.2439 1.6215,-1.2085 0.3776,0.3776 -1.3064,1.6657 -2.1276,2.1954 -2.1276,1.3724 z m 3,-4 c 0,-0.2077 0.7875,-0.9952 1.75,-1.75 1.5861,-1.2439 1.6215,-1.2085 0.3776,0.3776 -1.3064,1.6657 -2.1276,2.1954 -2.1276,1.3724 z m 3,-4 c 0,-0.2077 0.7875,-0.9952 1.75,-1.75 1.5861,-1.2439 1.6215,-1.2085 0.3776,0.3776 -1.3064,1.6657 -2.1276,2.1954 -2.1276,1.3724 z m 78,-122.5634 c 0,-0.5176 0.4449,-1.2159 0.9886,-1.552 0.5668,-0.3503 0.7345,0.051 0.393,0.941 -0.6648,1.7324 -1.3816,2.0494 -1.3816,0.611 z m 83.079,-214.6424 c 0.048,-1.1649 0.2849,-1.4019 0.6041,-0.6041 0.2889,0.7218 0.2534,1.5843 -0.079,1.9166 -0.3323,0.3323 -0.5686,-0.2583 -0.5252,-1.3125 z m 1,-4 c 0.048,-1.1649 0.2849,-1.4019 0.6041,-0.6041 0.2889,0.7218 0.2534,1.5843 -0.079,1.9166 -0.3323,0.3323 -0.5686,-0.2583 -0.5252,-1.3125 z m 1,-4 c 0.048,-1.1649 0.2849,-1.4019 0.6041,-0.6041 0.2889,0.7218 0.2534,1.5843 -0.079,1.9166 -0.3323,0.3323 -0.5686,-0.2583 -0.5252,-1.3125 z m 3,-13 c 0.048,-1.1649 0.2849,-1.4019 0.6041,-0.6041 0.2889,0.7218 0.2534,1.5843 -0.079,1.9166 -0.3323,0.3323 -0.5686,-0.2583 -0.5252,-1.3125 z m 2,-9 c 0.048,-1.1649 0.2849,-1.4019 0.6041,-0.6041 0.2889,0.7218 0.2534,1.5843 -0.079,1.9166 -0.3323,0.3323 -0.5686,-0.2583 -0.5252,-1.3125 z m 2,-9 c 0.048,-1.1649 0.2849,-1.4019 0.6041,-0.6041 0.2889,0.7218 0.2534,1.5843 -0.079,1.9166 -0.3323,0.3323 -0.5686,-0.2583 -0.5252,-1.3125 z m 1,-5 c 0.048,-1.1649 0.2849,-1.4019 0.6041,-0.6041 0.2889,0.7218 0.2534,1.5843 -0.079,1.9166 -0.3323,0.3323 -0.5686,-0.2583 -0.5252,-1.3125 z m 1,-5 c 0.048,-1.1649 0.2849,-1.4019 0.6041,-0.6041 0.2889,0.7218 0.2534,1.5843 -0.079,1.9166 -0.3323,0.3323 -0.5686,-0.2583 -0.5252,-1.3125 z m 1,-5 c 0.048,-1.1649 0.2849,-1.4019 0.6041,-0.6041 0.2889,0.7218 0.2534,1.5843 -0.079,1.9166 -0.3323,0.3323 -0.5686,-0.2583 -0.5252,-1.3125 z m 1,-5 c 0.048,-1.1649 0.2849,-1.4019 0.6041,-0.6041 0.2889,0.7218 0.2534,1.5843 -0.079,1.9166 -0.3323,0.3323 -0.5686,-0.2583 -0.5252,-1.3125 z m 1,-6 c 0.048,-1.1649 0.2849,-1.4019 0.6041,-0.6041 0.2889,0.7218 0.2534,1.5843 -0.079,1.9166 -0.3323,0.3323 -0.5686,-0.2583 -0.5252,-1.3125 z m 1.0789,-5.4166 c 0,-1.375 0.227,-1.9375 0.5044,-1.25 0.2774,0.6875 0.2774,1.8125 0,2.5 -0.2774,0.6875 -0.5044,0.125 -0.5044,-1.25 z m 0.9211,-5.5834 c 0.048,-1.1649 0.2849,-1.4019 0.6041,-0.6041 0.2889,0.7218 0.2534,1.5843 -0.079,1.9166 -0.3323,0.3323 -0.5686,-0.2583 -0.5252,-1.3125 z m 1.0789,-6.4166 c 0,-1.375 0.227,-1.9375 0.5044,-1.25 0.2774,0.6875 0.2774,1.8125 0,2.5 -0.2774,0.6875 -0.5044,0.125 -0.5044,-1.25 z m 1,-6 c 0,-1.375 0.227,-1.9375 0.5044,-1.25 0.2774,0.6875 0.2774,1.8125 0,2.5 -0.2774,0.6875 -0.5044,0.125 -0.5044,-1.25 z m 1,-7 c 0,-1.375 0.227,-1.9375 0.5044,-1.25 0.2774,0.6875 0.2774,1.8125 0,2.5 -0.2774,0.6875 -0.5044,0.125 -0.5044,-1.25 z m 1,-7 c 0,-1.375 0.227,-1.9375 0.5044,-1.25 0.2774,0.6875 0.2774,1.8125 0,2.5 -0.2774,0.6875 -0.5044,0.125 -0.5044,-1.25 z m 1,-7 c 0,-1.375 0.227,-1.9375 0.5044,-1.25 0.2774,0.6875 0.2774,1.8125 0,2.5 -0.2774,0.6875 -0.5044,0.125 -0.5044,-1.25 z m 1.0371,-7.5 c 0.02,-1.65 0.2445,-2.204 0.498,-1.231 0.2536,0.973 0.2369,2.323 -0.037,3 -0.274,0.677 -0.4814,-0.119 -0.461,-1.769 z m 1,-9 c 0.02,-1.65 0.2445,-2.204 0.498,-1.231 0.2536,0.973 0.2369,2.323 -0.037,3 -0.274,0.677 -0.4814,-0.119 -0.461,-1.769 z m 1.037,-8.5 c 0,-1.925 0.2058,-2.7125 0.4574,-1.75 0.2515,0.9625 0.2515,2.5375 0,3.5 -0.2516,0.9625 -0.4574,0.175 -0.4574,-1.75 z m 1.0202,-10.5 c 0.011,-2.2 0.2159,-2.9823 0.4551,-1.7384 0.2392,1.2439 0.2301,3.0439 -0.02,4 -0.2503,0.9561 -0.446,-0.062 -0.4349,-2.2616 z m 1.0202,-11.5 c 0,-2.475 0.195,-3.4875 0.4334,-2.25 0.2383,1.2375 0.2383,3.2625 0,4.5 -0.2384,1.2375 -0.4334,0.225 -0.4334,-2.25 z m 1.0136,-13.5 c 0.01,-2.75 0.2018,-3.7564 0.4316,-2.2363 0.2299,1.5201 0.2237,3.7701 -0.014,5 -0.2374,1.2299 -0.4255,-0.014 -0.418,-2.7637 z m 1.0341,-16.5 c 0,-3.575 0.1815,-5.0375 0.4033,-3.25 0.2219,1.7875 0.2219,4.7125 0,6.5 -0.2218,1.7875 -0.4033,0.325 -0.4033,-3.25 z m 1.0161,-19 c 0,-4.125 0.1766,-5.8125 0.3923,-3.75 0.2157,2.0625 0.2157,5.4375 0,7.5 -0.2157,2.0625 -0.3923,0.375 -0.3923,-3.75 z M 559.51913,913.1005 C 502.5818,869.52331 456.15832,833.70763 456.35584,833.51011 c 0.3241,-0.32409 202.9934,154.23757 206.47597,157.46475 0.80536,0.74629 1.18202,1.3569 0.83701,1.3569 -0.345,0 -47.21236,-35.65407 -104.14969,-79.23126 z"
         id="path7" />
      <path
         style="fill:#fdce64"
         d="m 444.27252,1547.0818 -1.90499,-2.25 2.25,1.9049 c 2.11444,1.7903 2.70524,2.5951 1.90499,2.5951 -0.18976,0 -1.20226,-1.0125 -2.25,-2.25 z m -26.2471,-63.75 c 0,-1.375 0.22698,-1.9375 0.50439,-1.25 0.27741,0.6875 0.27741,1.8125 0,2.5 -0.27741,0.6875 -0.50439,0.125 -0.50439,-1.25 z m 947.28328,-63.5552 c -1.8641,-1.4934 -1.8518,-1.5119 0.3088,-0.4648 1.2375,0.5997 2.25,1.2995 2.25,1.5551 0,0.7653 -0.5186,0.5443 -2.5588,-1.0903 z m -11,-7 c -1.8641,-1.4934 -1.8518,-1.5119 0.3088,-0.4648 1.2375,0.5997 2.25,1.2995 2.25,1.5551 0,0.7653 -0.5186,0.5443 -2.5588,-1.0903 z m -684.44117,-3.8745 c 0,-0.275 0.9,-0.9816 2,-1.5703 1.1,-0.5887 2,-0.8454 2,-0.5704 0,0.275 -0.9,0.9817 -2,1.5704 -1.1,0.5887 -2,0.8453 -2,0.5703 z m 673.44117,-3.1255 c -1.8641,-1.4934 -1.8518,-1.5119 0.3088,-0.4648 1.2375,0.5997 2.25,1.2995 2.25,1.5551 0,0.7653 -0.5186,0.5443 -2.5588,-1.0903 z m -665.44117,-1.8745 c 0,-0.275 0.9,-0.9816 2,-1.5703 1.1,-0.5887 2,-0.8454 2,-0.5704 0,0.275 -0.9,0.9817 -2,1.5704 -1.1,0.5887 -2,0.8453 -2,0.5703 z m 654.44117,-5.1255 c -1.8641,-1.4934 -1.8518,-1.5119 0.3088,-0.4648 1.2375,0.5997 2.25,1.2995 2.25,1.5551 0,0.7653 -0.5186,0.5443 -2.5588,-1.0903 z m -646.44117,0.1255 c 0,-0.275 0.9,-0.9816 2,-1.5703 1.1,-0.5887 2,-0.8454 2,-0.5704 0,0.275 -0.9,0.9817 -2,1.5704 -1.1,0.5887 -2,0.8453 -2,0.5703 z m 8,-5 c 0,-0.275 0.9,-0.9816 2,-1.5703 1.1,-0.5887 2,-0.8454 2,-0.5704 0,0.275 -0.9,0.9817 -2,1.5704 -1.1,0.5887 -2,0.8453 -2,0.5703 z m 627.44117,-2.1255 c -1.8641,-1.4934 -1.8518,-1.5119 0.3088,-0.4648 1.2375,0.5997 2.25,1.2995 2.25,1.5551 0,0.7653 -0.5186,0.5443 -2.5588,-1.0903 z m -619.44117,-2.8745 c 0,-0.275 0.9,-0.9816 2,-1.5703 1.1,-0.5887 2,-0.8454 2,-0.5704 0,0.275 -0.9,0.9817 -2,1.5704 -1.1,0.5887 -2,0.8453 -2,0.5703 z m 608.44117,-4.1255 c -1.8641,-1.4934 -1.8518,-1.5119 0.3088,-0.4648 1.2375,0.5997 2.25,1.2995 2.25,1.5551 0,0.7653 -0.5186,0.5443 -2.5588,-1.0903 z m -600.44117,-0.8745 c 0,-0.275 0.9,-0.9816 2,-1.5703 1.1,-0.5887 2,-0.8454 2,-0.5704 0,0.275 -0.9,0.9817 -2,1.5704 -1.1,0.5887 -2,0.8453 -2,0.5703 z m 8,-5 c 0,-0.275 0.9,-0.9816 2,-1.5703 1.1,-0.5887 2,-0.8454 2,-0.5704 0,0.275 -0.9,0.9817 -2,1.5704 -1.1,0.5887 -2,0.8453 -2,0.5703 z m 581.44117,-1.1255 c -1.8641,-1.4934 -1.8518,-1.5119 0.3088,-0.4648 1.2375,0.5997 2.25,1.2995 2.25,1.5551 0,0.7653 -0.5186,0.5443 -2.5588,-1.0903 z m -573.44117,-3.8745 c 0,-0.275 0.9,-0.9816 2,-1.5703 1.1,-0.5887 2,-0.8454 2,-0.5704 0,0.275 -0.9,0.9817 -2,1.5704 -1.1,0.5887 -2,0.8453 -2,0.5703 z m 562.44117,-3.1255 c -1.8641,-1.4934 -1.8518,-1.5119 0.3088,-0.4648 1.2375,0.5997 2.25,1.2995 2.25,1.5551 0,0.7653 -0.5186,0.5443 -2.5588,-1.0903 z m -554.44117,-1.8745 c 0,-0.275 0.9,-0.9816 2,-1.5703 1.1,-0.5887 2,-0.8454 2,-0.5704 0,0.275 -0.9,0.9817 -2,1.5704 -1.1,0.5887 -2,0.8453 -2,0.5703 z m 543.44117,-5.1255 c -1.8641,-1.4934 -1.8518,-1.5119 0.3088,-0.4648 1.2375,0.5997 2.25,1.2995 2.25,1.5551 0,0.7653 -0.5186,0.5443 -2.5588,-1.0903 z m -535.44117,0.1255 c 0,-0.275 0.9,-0.9816 2,-1.5703 1.1,-0.5887 2,-0.8454 2,-0.5704 0,0.275 -0.9,0.9817 -2,1.5704 -1.1,0.5887 -2,0.8453 -2,0.5703 z m 8,-5 c 0,-0.275 0.9,-0.9816 2,-1.5703 1.1,-0.5887 2,-0.8454 2,-0.5704 0,0.275 -0.9,0.9817 -2,1.5704 -1.1,0.5887 -2,0.8453 -2,0.5703 z m 516.44117,-2.1255 c -1.8641,-1.4934 -1.8518,-1.5119 0.3088,-0.4648 1.2375,0.5997 2.25,1.2995 2.25,1.5551 0,0.7653 -0.5186,0.5443 -2.5588,-1.0903 z m -508.44117,-2.8745 c 0,-0.275 0.9,-0.9816 2,-1.5703 1.1,-0.5887 2,-0.8454 2,-0.5704 0,0.275 -0.9,0.9817 -2,1.5704 -1.1,0.5887 -2,0.8453 -2,0.5703 z m 497.44117,-4.1255 c -1.8641,-1.4934 -1.8518,-1.5119 0.3088,-0.4648 1.2375,0.5997 2.25,1.2995 2.25,1.5551 0,0.7653 -0.5186,0.5443 -2.5588,-1.0903 z m -489.44117,-0.8745 c 0,-0.275 0.9,-0.9816 2,-1.5703 1.1,-0.5887 2,-0.8454 2,-0.5704 0,0.275 -0.9,0.9817 -2,1.5704 -1.1,0.5887 -2,0.8453 -2,0.5703 z m 8,-5 c 0,-0.275 0.9,-0.9816 2,-1.5703 1.1,-0.5887 2,-0.8454 2,-0.5704 0,0.275 -0.9,0.9817 -2,1.5704 -1.1,0.5887 -2,0.8453 -2,0.5703 z m 470.44117,-1.1255 c -1.8641,-1.4934 -1.8518,-1.5119 0.3088,-0.4648 1.2375,0.5997 2.25,1.2995 2.25,1.5551 0,0.7653 -0.5186,0.5443 -2.5588,-1.0903 z m -462.44117,-3.8745 c 0,-0.275 0.9,-0.9816 2,-1.5703 1.1,-0.5887 2,-0.8454 2,-0.5704 0,0.275 -0.9,0.9817 -2,1.5704 -1.1,0.5887 -2,0.8453 -2,0.5703 z m 451.44117,-3.1255 c -1.8641,-1.4934 -1.8518,-1.5119 0.3088,-0.4648 1.2375,0.5997 2.25,1.2995 2.25,1.5551 0,0.7653 -0.5186,0.5443 -2.5588,-1.0903 z m -443.44117,-1.8745 c 0,-0.275 0.9,-0.9816 2,-1.5703 1.1,-0.5887 2,-0.8454 2,-0.5704 0,0.275 -0.9,0.9817 -2,1.5704 -1.1,0.5887 -2,0.8453 -2,0.5703 z m 432.44117,-5.1255 c -1.8641,-1.4934 -1.8518,-1.5119 0.3088,-0.4648 1.2375,0.5997 2.25,1.2995 2.25,1.5551 0,0.7653 -0.5186,0.5443 -2.5588,-1.0903 z m -424.44117,0.1255 c 0,-0.275 0.9,-0.9816 2,-1.5703 1.1,-0.5887 2,-0.8454 2,-0.5704 0,0.275 -0.9,0.9817 -2,1.5704 -1.1,0.5887 -2,0.8453 -2,0.5703 z m 413.44117,-7.1255 c -1.8641,-1.4934 -1.8518,-1.5119 0.3088,-0.4648 1.2375,0.5997 2.25,1.2995 2.25,1.5551 0,0.7653 -0.5186,0.5443 -2.5588,-1.0903 z m -397.44117,-2.8745 c 0,-0.275 0.9,-0.9816 2,-1.5703 1.1,-0.5887 2,-0.8454 2,-0.5704 0,0.275 -0.9,0.9817 -2,1.5704 -1.1,0.5887 -2,0.8453 -2,0.5703 z m 372.44117,-13.1255 c -1.8641,-1.4934 -1.8518,-1.5119 0.3088,-0.4648 1.2375,0.5997 2.25,1.2995 2.25,1.5551 0,0.7653 -0.5186,0.5443 -2.5588,-1.0903 z m -11,-7 c -1.8641,-1.4934 -1.8518,-1.5119 0.3088,-0.4648 1.2375,0.5997 2.25,1.2995 2.25,1.5551 0,0.7653 -0.5186,0.5443 -2.5588,-1.0903 z m -11,-7 c -1.8641,-1.4934 -1.8518,-1.5119 0.3088,-0.4648 1.2375,0.5997 2.25,1.2995 2.25,1.5551 0,0.7653 -0.5186,0.5443 -2.5588,-1.0903 z m -11,-7 c -1.8641,-1.4934 -1.8518,-1.5119 0.3088,-0.4648 1.2375,0.5997 2.25,1.2995 2.25,1.5551 0,0.7653 -0.5186,0.5443 -2.5588,-1.0903 z m -11,-7 c -1.8641,-1.4934 -1.8518,-1.5119 0.3088,-0.4648 1.2375,0.5997 2.25,1.2995 2.25,1.5551 0,0.7653 -0.5186,0.5443 -2.5588,-1.0903 z m -11,-7 c -1.8641,-1.4934 -1.8518,-1.5119 0.3088,-0.4648 1.2375,0.5997 2.25,1.2995 2.25,1.5551 0,0.7653 -0.5186,0.5443 -2.5588,-1.0903 z m -11,-7 c -1.8641,-1.4934 -1.8518,-1.5119 0.3088,-0.4648 1.2375,0.5997 2.25,1.2995 2.25,1.5551 0,0.7653 -0.5186,0.5443 -2.5588,-1.0903 z m -11,-7 c -1.8641,-1.4934 -1.8518,-1.5119 0.3088,-0.4648 1.2375,0.5997 2.25,1.2995 2.25,1.5551 0,0.7653 -0.5186,0.5443 -2.5588,-1.0903 z m -11,-7 c -1.8641,-1.4934 -1.8518,-1.5119 0.3088,-0.4648 1.2375,0.5997 2.25,1.2995 2.25,1.5551 0,0.7653 -0.5186,0.5443 -2.5588,-1.0903 z m -169.44117,-2.8745 c 0,-0.275 0.9,-0.9816 2,-1.5703 1.1,-0.5887 2,-0.8454 2,-0.5704 0,0.275 -0.9,0.9817 -2,1.5704 -1.1,0.5887 -2,0.8453 -2,0.5703 z m 158.44117,-4.1255 c -1.8641,-1.4934 -1.8518,-1.5119 0.3088,-0.4648 1.2375,0.5997 2.25,1.2995 2.25,1.5551 0,0.7653 -0.5186,0.5443 -2.5588,-1.0903 z m -150.44117,-0.8745 c 0,-0.275 0.9,-0.9816 2,-1.5703 1.1,-0.5887 2,-0.8454 2,-0.5704 0,0.275 -0.9,0.9817 -2,1.5704 -1.1,0.5887 -2,0.8453 -2,0.5703 z m 8,-5 c 0,-0.275 0.9,-0.9816 2,-1.5703 1.1,-0.5887 2,-0.8454 2,-0.5704 0,0.275 -0.9,0.9817 -2,1.5704 -1.1,0.5887 -2,0.8453 -2,0.5703 z m 131.44117,-1.1255 c -1.8641,-1.4934 -1.8518,-1.5119 0.3088,-0.4648 1.2375,0.5997 2.25,1.2995 2.25,1.5551 0,0.7653 -0.5186,0.5443 -2.5588,-1.0903 z m -123.44117,-3.8745 c 0,-0.275 0.9,-0.9816 2,-1.5703 1.1,-0.5887 2,-0.8454 2,-0.5704 0,0.275 -0.9,0.9817 -2,1.5704 -1.1,0.5887 -2,0.8453 -2,0.5703 z m 112.44117,-3.1255 c -1.8641,-1.4934 -1.8518,-1.5119 0.3088,-0.4648 1.2375,0.5997 2.25,1.2995 2.25,1.5551 0,0.7653 -0.5186,0.5443 -2.5588,-1.0903 z m -56.3675,-2.2075 -36.42632,-0.2627 -15.57368,-10.3428 c -8.56552,-5.6885 -20.02964,-13.7828 -25.47583,-17.9873 l -9.90216,-7.6445 h 87.36649 c 73.1513,0 87.1282,0.2183 85.9021,1.3421 -6.9283,6.3502 -35.1013,27.2429 -41.4643,30.7493 l -8,4.4086 z m -174.19915,-102.5476 -23.62547,-18.1897 97.87547,-0.2549 c 53.83152,-0.1402 142.07565,-0.1402 196.09805,0 l 98.2225,0.2549 -22.9725,18.2408 -22.9726,18.2409 -149.5,-0.051 -149.49997,-0.051 z m -100.45337,-76.9397 c -18.18322,-13.9196 -19.89355,-15.49 -19.60473,-18 l 0.31642,-2.75 h 294.14783 c 253.1765,0 293.9439,0.1964 292.6836,1.4103 -0.8053,0.7756 -10.9143,8.8719 -22.4643,17.9917 l -21,16.5815 -252.0788,0.01 -252.07887,0.01 z m -19.42115,-87.75004 v -18 h 304.49997 304.5 v 18 18 h -304.5 -304.49997 z m 0,-85 v -18 h 304.49997 304.5 v 18 18 h -304.5 -304.49997 z m 0,-85 v -18 h 304.49997 304.5 v 18 18 h -304.5 -304.49997 z"
         id="path6" />
      <path
         style="fill:#91c3d5"
         d="m 917.71201,1949.3841 -10.65551,-0.5523 -17.84449,-15.5462 c -9.81446,-8.5504 -58.56948,-50.8638 -108.34448,-94.0298 -49.775,-43.1659 -131.45,-113.9986 -181.5,-157.4059 -50.05,-43.4072 -99.55,-86.3203 -110,-95.3622 -10.45,-9.042 -20.125,-17.5559 -21.5,-18.9199 l -2.5,-2.48 4.5,2.5633 c 2.475,1.4098 8.775,4.0522 14,5.8719 l 9.5,3.3088 h 518.49997 518.5 l 7.5,-2.3455 c 32.0234,-10.0145 56.0027,-36.1456 65.7539,-71.6545 l 2.7461,-10 0.2616,-293.9913 c 0.2857,-321.00868 0.6069,-301.66748 -5.3076,-319.58161 -6.8318,-20.69257 -21.23,-40.42076 -37.8416,-51.8498 l -4.4992,-3.09557 -91.6711,72.56133 c -50.419,39.90873 -91.8755,72.35678 -92.1255,72.10678 -0.25,-0.25001 2.614,-2.89453 6.3644,-5.87672 21.5831,-17.16183 170.4462,-134.80723 173.6123,-137.20441 l 3.7932,-2.87206 -2.4029,-1.59834 c -1.3215,-0.87909 -19.9035,-18.49621 -41.2932,-39.14916 -125.6354,-121.30793 -243.1229,-229.56683 -322.8245,-297.46679 -10.9637,-9.34031 -21.3137,-18.23733 -23,-19.77114 -4.3134,-3.92353 7.7699,4.65842 392.9341,279.07479 l 345,245.8007 0.3512,4.45663 c 0.4518,5.73397 -1.5565,48.07207 -3.4132,71.95667 -8.1034,104.2399 -32.8224,204.9396 -74.1326,302 -8.5289,20.039 -31.8597,67.7631 -41.7983,85.5 -71.17,127.0137 -166.5245,234.2486 -281.3833,316.4414 -132.9825,95.162 -285.7135,154.3107 -446.6238,172.9655 -49.2947,5.7149 -104.81757,8.1067 -142.65549,6.1454 z M 480.86753,806.83176 c 1.86578,-1.925 3.61733,-3.5 3.89233,-3.5 0.275,0 -1.02655,1.575 -2.89233,3.5 -1.86578,1.925 -3.61733,3.5 -3.89233,3.5 -0.275,0 1.02655,-1.575 2.89233,-3.5 z m 22,-21 c 1.29174,-1.375 2.57363,-2.5 2.84863,-2.5 0.275,0 -0.55689,1.125 -1.84863,2.5 -1.29175,1.375 -2.57363,2.5 -2.84863,2.5 -0.275,0 0.55688,-1.125 1.84863,-2.5 z m 19,-18 c 1.29174,-1.375 2.57363,-2.5 2.84863,-2.5 0.275,0 -0.55689,1.125 -1.84863,2.5 -1.29175,1.375 -2.57363,2.5 -2.84863,2.5 -0.275,0 0.55688,-1.125 1.84863,-2.5 z m 18,-17 c 1.29174,-1.375 2.57363,-2.5 2.84863,-2.5 0.275,0 -0.55689,1.125 -1.84863,2.5 -1.29175,1.375 -2.57363,2.5 -2.84863,2.5 -0.275,0 0.55688,-1.125 1.84863,-2.5 z m 17.5,-16.5 c 0.99549,-1.1 2.03497,-2 2.30997,-2 0.275,0 -0.31448,0.9 -1.30997,2 -0.99549,1.1 -2.03498,2 -2.30998,2 -0.275,0 0.31449,-0.9 1.30998,-2 z m 16,-15 c 0.99549,-1.1 2.03497,-2 2.30997,-2 0.275,0 -0.31448,0.9 -1.30997,2 -0.99549,1.1 -2.03498,2 -2.30998,2 -0.275,0 0.31449,-0.9 1.30998,-2 z m 14.5,-13.5 c 1.29174,-1.375 2.57363,-2.5 2.84863,-2.5 0.275,0 -0.55689,1.125 -1.84863,2.5 -1.29175,1.375 -2.57363,2.5 -2.84863,2.5 -0.275,0 0.55688,-1.125 1.84863,-2.5 z m 14.5,-13.5 c 0.99549,-1.1 2.03497,-2 2.30997,-2 0.275,0 -0.31448,0.9 -1.30997,2 -0.99549,1.1 -2.03498,2 -2.30998,2 -0.275,0 0.31449,-0.9 1.30998,-2 z m 14,-13 c 0.99549,-1.1 2.03497,-2 2.30997,-2 0.275,0 -0.31448,0.9 -1.30997,2 -0.99549,1.1 -2.03498,2 -2.30998,2 -0.275,0 0.31449,-0.9 1.30998,-2 z m 13,-12 c 0.99549,-1.1 2.03497,-2 2.30997,-2 0.275,0 -0.31448,0.9 -1.30997,2 -0.99549,1.1 -2.03498,2 -2.30998,2 -0.275,0 0.31449,-0.9 1.30998,-2 z m 11.5,-10.37756 c 0,-0.20765 0.7875,-0.99515 1.75,-1.75 1.58605,-1.24387 1.62142,-1.2085 0.37755,0.37756 -1.30637,1.66574 -2.12755,2.19548 -2.12755,1.37244 z m 13.5,-12.62244 c 0.99549,-1.1 2.03497,-2 2.30997,-2 0.275,0 -0.31448,0.9 -1.30997,2 -0.99549,1.1 -2.03498,2 -2.30998,2 -0.275,0 0.31449,-0.9 1.30998,-2 z m 10.5,-9.37756 c 0,-0.20765 0.7875,-0.99515 1.75,-1.75 1.58605,-1.24387 1.62142,-1.2085 0.37755,0.37756 -1.30637,1.66574 -2.12755,2.19548 -2.12755,1.37244 z m 11,-10 c 0,-0.20765 0.7875,-0.99515 1.75,-1.75 1.58605,-1.24387 1.62142,-1.2085 0.37755,0.37756 -1.30637,1.66574 -2.12755,2.19548 -2.12755,1.37244 z m 11,-10 c 0,-0.20765 0.7875,-0.99515 1.75,-1.75 1.58605,-1.24387 1.62142,-1.2085 0.37755,0.37756 -1.30637,1.66574 -2.12755,2.19548 -2.12755,1.37244 z m 11,-10 c 0,-0.20765 0.7875,-0.99515 1.75,-1.75 1.58605,-1.24387 1.62142,-1.2085 0.37755,0.37756 -1.30637,1.66574 -2.12755,2.19548 -2.12755,1.37244 z m 30,-27 c 0,-0.20765 0.7875,-0.99515 1.75,-1.75 1.58605,-1.24387 1.62142,-1.2085 0.37755,0.37756 -1.30637,1.66574 -2.12755,2.19548 -2.12755,1.37244 z m 44,-39 c 0,-0.20765 0.7875,-0.99515 1.75,-1.75 1.58605,-1.24387 1.62142,-1.2085 0.37755,0.37756 -1.30637,1.66574 -2.12755,2.19548 -2.12755,1.37244 z m 31,-27 c 0,-0.20765 0.7875,-0.99515 1.75,-1.75 1.58605,-1.24387 1.62142,-1.2085 0.37755,0.37756 -1.30637,1.66574 -2.12755,2.19548 -2.12755,1.37244 z M 1163.74,460.58176 c -1.2439,-1.58606 -1.2085,-1.62143 0.3775,-0.37756 1.6658,1.30637 2.1955,2.12756 1.3725,2.12756 -0.2077,0 -0.9952,-0.7875 -1.75,-1.75 z m -140.8725,-98.81287 c -1.925,-0.72834 -4.6404,-1.34965 -6.0343,-1.38069 -2.0765,-0.0462 -2.8401,-0.8817 -4.2276,-4.62516 l -1.6932,-4.56871 4.7275,3.44924 c 2.6002,1.89709 6.4779,4.62801 8.6172,6.06872 4.2439,2.85813 3.9542,3.07844 -1.3896,1.0566 z"
         id="path5" />
      <path
         style="fill:#f6b81b"
         d="m 1431.8675,1461.5029 c -78.375,-49.9167 -194.7,-123.9859 -258.5,-164.5982 -63.8,-40.6123 -116.2182,-74.0361 -116.485,-74.2752 -0.2668,-0.239 0.4659,-1.1913 1.6281,-2.1161 1.1623,-0.9249 10.1043,-7.9816 19.8712,-15.6816 18.9512,-14.9408 61.3621,-48.4897 102.069,-80.7411 40.9639,-32.4551 110.6454,-87.5525 155.3307,-122.8206 15.7223,-12.40899 71.8411,-56.78445 124.7084,-98.61218 52.8674,-41.82773 96.6588,-76.38193 97.3144,-76.78711 1.7339,-1.0716 10.7352,5.24401 18.4042,12.91301 16.1033,16.10329 26.5552,38.26684 29.6372,62.8464 1.3656,10.89076 1.3559,576.14188 -0.01,586.70158 -2.8775,22.2448 -11.7805,42.5279 -25.4775,58.0435 -2.6493,3.001 -5.081,5.553 -5.4038,5.6709 -0.3227,0.1179 -64.7118,-40.6265 -143.0868,-90.5433 z m -988.78501,83.4209 c -10.32834,-11.7633 -18.64075,-29.4836 -22.88972,-48.796 -1.74388,-7.9262 -1.82524,-21.312 -1.82524,-300.296 0,-242.33984 0.23206,-293.27556 1.36452,-299.50004 4.14864,-22.80267 14.53169,-43.22736 29.37178,-57.77779 l 5.38285,-5.27778 94.94043,72.67719 c 52.21723,39.97246 111.81542,85.52375 132.44042,101.22512 20.625,15.7013 46.275,35.295 57,43.5414 10.725,8.2465 31.2,23.9258 45.5,34.8429 14.3,10.9172 36.98498,28.2688 50.41107,38.5592 13.42609,10.2904 38.40109,29.397 55.5,42.4593 76.28417,58.2752 74.8532,57.1247 72.88748,58.6039 -2.05766,1.5484 -516.39809,323.1466 -516.81687,323.1466 -0.15097,0 -1.62099,-1.5336 -3.26672,-3.408 z"
         id="path4" />
      <path
         style="fill:#e3a238"
         d="m 496.86753,1576.642 c -7.76023,-1.3134 -18.40759,-4.945 -25.93179,-8.8447 -9.03462,-4.6825 -23.56821,-16.072 -23.56821,-18.4697 0,-0.7938 47.51469,-31.1534 108.25,-69.1664 59.5375,-37.2633 108.25,-67.5618 108.25,-67.3298 0,0.7261 241.4602,-150.6387 242.23469,-151.8503 0.40407,-0.6321 0.74157,-0.7812 0.75,-0.3312 0.0168,0.8968 6.069,-3.085 7.25,-4.77 0.40407,-0.5765 0.74157,-0.68 0.75,-0.23 0.0159,0.849 6.05031,-3.0502 7.12711,-4.6054 0.33649,-0.4859 1.01149,-0.863 1.5,-0.8379 1.20519,0.062 38.81727,-23.482 40.22741,-25.1811 0.88938,-1.0716 -0.73633,-2.7583 -7.85893,-8.1538 -4.93916,-3.7414 -8.98028,-6.9786 -8.98028,-7.1936 0,-0.2151 4.6125,2.6956 10.25,6.4682 25.64688,17.1629 40.10309,24.1359 50.10247,24.1672 9.8115,0.031 23.1077,-5.1017 46.6475,-18.0062 4.125,-2.2613 6.3818,-3.2117 5.015,-2.1119 -1.3668,1.0998 -2.2668,2.1611 -2,2.3584 0.2668,0.1974 2.2777,1.6907 4.4686,3.3184 6.7416,5.0085 12.3107,8.3319 12.9279,7.7147 0.3237,-0.3236 0.5885,-0.1062 0.5885,0.4832 0,1.154 9.0077,6.852 10.25,6.4839 0.4125,-0.1222 0.75,0.185 0.75,0.6827 0,1.0366 9.1142,6.6538 10.25,6.3173 0.4125,-0.1222 0.75,0.185 0.75,0.6827 0,1.0366 9.1142,6.6538 10.25,6.3173 0.4125,-0.1222 0.75,0.185 0.75,0.6827 0,0.943 7.8364,5.8722 9.3882,5.9053 0.4885,0.01 1.1851,0.4993 1.548,1.0864 0.897,1.4514 79.0599,51.162 79.0791,50.2934 0.01,-0.3795 0.346,-0.2103 0.75,0.376 1.2988,1.8844 9.9585,7.3769 10.6075,6.7278 0.345,-0.3449 0.6272,-0.1449 0.6272,0.4445 0,1.154 9.0077,6.852 10.25,6.4839 0.4125,-0.1222 0.75,0.185 0.75,0.6827 0,1.0366 9.1142,6.6538 10.25,6.3173 0.4125,-0.1222 0.75,0.185 0.75,0.6827 0,1.0366 9.1142,6.6538 10.25,6.3173 0.4125,-0.1222 0.75,0.185 0.75,0.6827 0,1.0366 9.1142,6.6538 10.25,6.3173 0.4125,-0.1222 0.75,0.185 0.75,0.6827 0,1.0366 9.1142,6.6538 10.25,6.3173 0.4125,-0.1222 0.75,0.185 0.75,0.6827 0,1.0366 9.1142,6.6538 10.25,6.3173 0.4125,-0.1222 0.75,0.185 0.75,0.6827 0,0.9079 8.429,6.2437 9.5727,6.0598 0.3352,-0.054 1.131,0.539 1.7684,1.3174 1.1807,1.4419 86.2291,55.7179 87.3078,55.7179 0.3252,0 45.5974,28.6499 100.605,63.6665 l 100.0137,63.6666 -3.3838,2.8705 c -10.0733,8.5453 -22.2882,15.3678 -34.0551,19.0211 l -7.3287,2.2753 -515.5,0.1167 c -283.52497,0.064 -516.62497,-0.074 -517.99997,-0.3065 z m 1079.99997,-26.6878 c 0,-0.2077 0.7875,-0.9952 1.75,-1.75 1.5861,-1.2439 1.6215,-1.2085 0.3776,0.3776 -1.3064,1.6657 -2.1276,2.1954 -2.1276,1.3724 z M 445.86753,841.01885 c 0,-0.1721 1.4625,-1.6346 3.25,-3.25 l 3.25,-2.93709 -2.93709,3.25 c -2.73778,3.02945 -3.56291,3.70965 -3.56291,2.93709 z"
         id="path3" />
      <path
         style="fill:#f26e59"
         d="m 560.6712,912.41163 c -56.48299,-43.21893 -103.50799,-79.11444 -104.5,-79.76779 -1.66255,-1.09498 -1.52984,-1.40674 1.69633,-3.98465 3.96381,-3.16735 10.05906,-8.86898 49.5,-46.3034 202.53376,-192.23007 359.46732,-329.88984 442.5,-388.15439 35.25699,-24.74005 55.07697,-34.67252 66.99997,-33.57591 43.1399,3.96772 226.2189,158.85888 498.3904,421.65545 21.3897,20.65295 39.9372,38.24745 41.2166,39.09889 2.2931,1.52605 1.8822,1.89875 -28.8904,26.20233 -17.1691,13.55985 -58.4416,46.20048 -91.7166,72.53474 l -60.5,47.88047 -0.2536,-134.33281 -0.2536,-134.3328 h -355.493 -355.49311 l -0.25333,145.82987 -0.25333,145.82988 z"
         id="path2" />
    </g>
  </g>
</svg>
