<?xml version="1.0" encoding="UTF-8" standalone="no"?>
<!-- Created with Inkscape (http://www.inkscape.org/) -->

<svg
   width="210mm"
   height="297mm"
   viewBox="0 0 210 297"
   version="1.1"
   id="svg1"
   inkscape:export-filename="ConSocial.svg"
   inkscape:export-xdpi="96"
   inkscape:export-ydpi="96"
   xmlns:inkscape="http://www.inkscape.org/namespaces/inkscape"
   xmlns:sodipodi="http://sodipodi.sourceforge.net/DTD/sodipodi-0.dtd"
   xmlns="http://www.w3.org/2000/svg"
   xmlns:svg="http://www.w3.org/2000/svg">
  <sodipodi:namedview
     id="namedview1"
     pagecolor="#ffffff"
     bordercolor="#000000"
     borderopacity="0.25"
     inkscape:showpageshadow="2"
     inkscape:pageopacity="0.0"
     inkscape:pagecheckerboard="0"
     inkscape:deskcolor="#d1d1d1"
     inkscape:document-units="mm" />
  <defs
     id="defs1">
    <clipPath
       clipPathUnits="userSpaceOnUse"
       id="clipPath4183">
      <path
         d="M 0,0 H 929 V 325 H 0 Z"
         id="path4183" />
    </clipPath>
    <clipPath
       clipPathUnits="userSpaceOnUse"
       id="clipPath4185">
      <path
         d="M 0,0 H 929 V 325 H 0 Z"
         id="path4185" />
    </clipPath>
    <clipPath
       clipPathUnits="userSpaceOnUse"
       id="clipPath4187">
      <path
         d="M 0,0 H 929 V 325 H 0 Z"
         id="path4187" />
    </clipPath>
    <clipPath
       clipPathUnits="userSpaceOnUse"
       id="clipPath4189">
      <path
         d="M 0,0 H 929 V 325 H 0 Z"
         id="path4189" />
    </clipPath>
    <clipPath
       clipPathUnits="userSpaceOnUse"
       id="clipPath4191">
      <path
         d="M 0,0 H 929 V 325 H 0 Z"
         id="path4191" />
    </clipPath>
    <clipPath
       clipPathUnits="userSpaceOnUse"
       id="clipPath4193">
      <path
         d="M 0,0 H 929 V 325 H 0 Z"
         id="path4193" />
    </clipPath>
    <clipPath
       clipPathUnits="userSpaceOnUse"
       id="clipPath4195">
      <path
         d="M 0,0 H 929 V 325 H 0 Z"
         id="path4195" />
    </clipPath>
    <clipPath
       clipPathUnits="userSpaceOnUse"
       id="clipPath4197">
      <path
         d="M 0,0 H 929 V 325 H 0 Z"
         id="path4197" />
    </clipPath>
    <clipPath
       clipPathUnits="userSpaceOnUse"
       id="clipPath4199">
      <path
         d="M 0,0 H 929 V 325 H 0 Z"
         id="path4199" />
    </clipPath>
    <clipPath
       clipPathUnits="userSpaceOnUse"
       id="clipPath4201">
      <path
         d="M 0,0 H 929 V 325 H 0 Z"
         id="path4201" />
    </clipPath>
    <clipPath
       clipPathUnits="userSpaceOnUse"
       id="clipPath4203">
      <path
         d="M 0,0 H 929 V 325 H 0 Z"
         id="path4203" />
    </clipPath>
    <clipPath
       clipPathUnits="userSpaceOnUse"
       id="clipPath4205">
      <path
         d="M 0,0 H 929 V 325 H 0 Z"
         id="path4205" />
    </clipPath>
    <clipPath
       clipPathUnits="userSpaceOnUse"
       id="clipPath4207">
      <path
         d="M 0,0 H 929 V 325 H 0 Z"
         id="path4207" />
    </clipPath>
    <clipPath
       clipPathUnits="userSpaceOnUse"
       id="clipPath4209">
      <path
         d="M 0,0 H 929 V 325 H 0 Z"
         id="path4209" />
    </clipPath>
    <clipPath
       clipPathUnits="userSpaceOnUse"
       id="clipPath4211">
      <path
         d="M 0,0 H 929 V 325 H 0 Z"
         id="path4211" />
    </clipPath>
    <clipPath
       clipPathUnits="userSpaceOnUse"
       id="clipPath4213">
      <path
         d="M 0,0 H 929 V 325 H 0 Z"
         id="path4213" />
    </clipPath>
    <clipPath
       clipPathUnits="userSpaceOnUse"
       id="clipPath4215">
      <path
         d="M 0,0 H 929 V 325 H 0 Z"
         id="path4215" />
    </clipPath>
    <clipPath
       clipPathUnits="userSpaceOnUse"
       id="clipPath4217">
      <path
         d="M 0,0 H 929 V 325 H 0 Z"
         id="path4217" />
    </clipPath>
    <clipPath
       clipPathUnits="userSpaceOnUse"
       id="clipPath4219">
      <path
         d="M 0,0 H 929 V 325 H 0 Z"
         id="path4219" />
    </clipPath>
    <clipPath
       clipPathUnits="userSpaceOnUse"
       id="clipPath4221">
      <path
         d="M 0,0 H 929 V 325 H 0 Z"
         id="path4221" />
    </clipPath>
    <clipPath
       clipPathUnits="userSpaceOnUse"
       id="clipPath4223">
      <path
         d="M 0,0 H 929 V 325 H 0 Z"
         id="path4223" />
    </clipPath>
    <clipPath
       clipPathUnits="userSpaceOnUse"
       id="clipPath4225">
      <path
         d="M 0,0 H 929 V 325 H 0 Z"
         id="path4225" />
    </clipPath>
    <clipPath
       clipPathUnits="userSpaceOnUse"
       id="clipPath4227">
      <path
         d="M 0,0 H 929 V 325 H 0 Z"
         id="path4227" />
    </clipPath>
    <clipPath
       clipPathUnits="userSpaceOnUse"
       id="clipPath4229">
      <path
         d="M 0,0 H 929 V 325 H 0 Z"
         id="path4229" />
    </clipPath>
    <clipPath
       clipPathUnits="userSpaceOnUse"
       id="clipPath4231">
      <path
         d="M 0,0 H 929 V 325 H 0 Z"
         id="path4231" />
    </clipPath>
    <clipPath
       clipPathUnits="userSpaceOnUse"
       id="clipPath4233">
      <path
         d="M 0,0 H 929 V 325 H 0 Z"
         id="path4233" />
    </clipPath>
  </defs>
  <g
     inkscape:label="Capa 1"
     inkscape:groupmode="layer"
     id="layer1">
    <g
       id="g1"
       style="fill:#ffffff">
      <g
         id="g4184"
         transform="matrix(0.26458333,0,0,0.26458333,0.59410768,0.22163137)"
         style="fill:#ffffff">
        <path
           d="m 19.227,46.09 5.097,-5.11 c 3.778,1.481 8.238,0.696 11.293,-2.367 3.051,-3.062 3.84,-7.535 2.36,-11.324 l 5.097,-5.109 21.461,21.519 2.383,2.391 6.359,6.375 -8.742,8.769 L 49.434,46.09 34.332,61.234 Z"
           style="fill:#ffffff;fill-opacity:1;fill-rule:evenodd;stroke:none"
           transform="scale(1.3333333)"
           clip-path="url(#clipPath4183)"
           id="path4184" />
      </g>
      <g
         id="g4186"
         transform="matrix(0.26458333,0,0,0.26458333,0.59410768,0.22163137)"
         style="fill:#ffffff">
        <path
           d="m 75.82,22.18 5.098,5.109 c -1.48,3.789 -0.691,8.262 2.359,11.324 3.055,3.063 7.516,3.852 11.293,2.367 l 5.098,5.11 -21.461,21.519 -2.387,2.395 -6.359,6.375 -8.742,-8.77 L 75.82,52.465 60.719,37.324 Z"
           style="fill:#ffffff;fill-opacity:1;fill-rule:evenodd;stroke:none"
           transform="scale(1.3333333)"
           clip-path="url(#clipPath4185)"
           id="path4186" />
      </g>
      <g
         id="g4188"
         transform="matrix(0.26458333,0,0,0.26458333,0.59410768,0.22163137)"
         style="fill:#ffffff">
        <path
           d="m 99.668,78.93 -5.098,5.109 c -3.777,-1.48 -8.238,-0.691 -11.293,2.367 -3.05,3.063 -3.839,7.535 -2.359,11.324 l -5.098,5.11 -21.461,-21.52 -2.382,-2.39 -6.36,-6.375 8.742,-8.77 15.102,15.145 15.105,-15.145 z"
           style="fill:#ffffff;fill-opacity:1;fill-rule:evenodd;stroke:none"
           transform="scale(1.3333333)"
           clip-path="url(#clipPath4187)"
           id="path4188" />
      </g>
      <g
         id="g4190"
         transform="matrix(0.26458333,0,0,0.26458333,0.59410768,0.22163137)"
         style="fill:#ffffff">
        <path
           d="m 43.074,102.84 -5.097,-5.11 c 1.476,-3.789 0.691,-8.261 -2.36,-11.324 -3.055,-3.062 -7.515,-3.847 -11.293,-2.367 l -5.097,-5.109 21.461,-21.52 2.386,-2.394 6.36,-6.375 8.742,8.769 -15.102,15.145 15.102,15.14 z"
           style="fill:#ffffff;fill-opacity:1;fill-rule:evenodd;stroke:none"
           transform="scale(1.3333333)"
           clip-path="url(#clipPath4189)"
           id="path4190" />
      </g>
      <g
         id="g4192"
         transform="matrix(0.26458333,0,0,0.26458333,0.59410768,0.22163137)"
         style="fill:#ffffff">
        <path
           d="m 22.656,25.617 c 3.043,-3.055 7.981,-3.055 11.028,0 3.043,3.055 3.043,8.004 0,11.055 -3.047,3.055 -7.985,3.055 -11.028,0 -3.043,-3.051 -3.043,-8 0,-11.055"
           style="fill:#ffffff;fill-opacity:1;fill-rule:evenodd;stroke:none"
           transform="scale(1.3333333)"
           clip-path="url(#clipPath4191)"
           id="path4192" />
      </g>
      <g
         id="g4194"
         transform="matrix(0.26458333,0,0,0.26458333,0.59410768,0.22163137)"
         style="fill:#ffffff">
        <path
           d="m 96.238,25.617 c 3.047,3.055 3.047,8.004 0,11.055 -3.047,3.055 -7.98,3.055 -11.027,0 -3.043,-3.051 -3.043,-8 0,-11.055 3.047,-3.055 7.98,-3.055 11.027,0"
           style="fill:#ffffff;fill-opacity:1;fill-rule:evenodd;stroke:none"
           transform="scale(1.3333333)"
           clip-path="url(#clipPath4193)"
           id="path4194" />
      </g>
      <g
         id="g4196"
         transform="matrix(0.26458333,0,0,0.26458333,0.59410768,0.22163137)"
         style="fill:#ffffff">
        <path
           d="m 96.238,99.402 c 3.043,-3.05 3.043,-8.004 0,-11.054 -3.047,-3.055 -7.98,-3.055 -11.027,0 -3.043,3.05 -3.043,8.004 0,11.054 3.047,3.055 7.98,3.055 11.027,0"
           style="fill:#ffffff;fill-opacity:1;fill-rule:evenodd;stroke:none"
           transform="scale(1.3333333)"
           clip-path="url(#clipPath4195)"
           id="path4196" />
      </g>
      <g
         id="g4198"
         transform="matrix(0.26458333,0,0,0.26458333,0.59410768,0.22163137)"
         style="fill:#ffffff">
        <path
           d="m 22.656,99.402 c 3.043,3.055 7.981,3.055 11.028,0 3.043,-3.05 3.043,-8.004 0,-11.058 -3.047,-3.051 -7.985,-3.051 -11.028,0 -3.047,3.054 -3.047,8.008 0,11.058"
           style="fill:#ffffff;fill-opacity:1;fill-rule:evenodd;stroke:none"
           transform="scale(1.3333333)"
           clip-path="url(#clipPath4197)"
           id="path4198" />
      </g>
      <g
         id="g4200"
         transform="matrix(0.26458333,0,0,0.26458333,0.59410768,0.22163137)"
         style="fill:#ffffff;fill-opacity:1">
        <path
           d="m 134.684,53.855 c 1.336,0 2.296,-0.207 2.882,-0.625 0.446,-1.832 0.676,-2.796 0.692,-2.89 0.769,-0.047 1.453,-0.016 2.054,0.094 0.047,0.586 0.071,1.679 0.071,3.285 l -0.301,0.621 c -1.57,1.066 -3.477,1.598 -5.723,1.598 -2.476,0 -4.437,-0.735 -5.882,-2.208 -1.45,-1.472 -2.172,-3.492 -2.172,-6.05 0,-2.563 0.808,-4.641 2.422,-6.239 1.617,-1.597 3.632,-2.394 6.046,-2.394 1.832,0 3.625,0.449 5.375,1.344 l 0.325,0.621 c -0.106,0.679 -0.336,2.015 -0.692,4.008 -0.754,0.042 -1.39,0.011 -1.914,-0.094 -0.031,-0.188 -0.222,-1.281 -0.578,-3.289 -0.707,-0.399 -1.594,-0.598 -2.652,-0.598 -1.356,0 -2.461,0.305 -3.325,0.926 -1.199,1.433 -1.8,3.277 -1.8,5.527 0,1.961 0.461,3.512 1.375,4.653 0.914,1.14 2.179,1.71 3.797,1.71"
           style="fill:#ffffff;fill-opacity:1;fill-rule:nonzero;stroke:none"
           transform="scale(1.3333333)"
           clip-path="url(#clipPath4199)"
           id="path4200" />
      </g>
      <g
         id="g4202"
         transform="matrix(0.26458333,0,0,0.26458333,0.59410768,0.22163137)"
         style="fill:#ffffff;fill-opacity:1">
        <path
           d="m 151.09,53.926 c 1.305,0 2.359,-0.348 3.16,-1.043 0.969,-1.262 1.453,-3.059 1.453,-5.391 0,-2.051 -0.391,-3.637 -1.164,-4.754 -0.777,-1.117 -1.973,-1.679 -3.59,-1.679 -1.183,0 -2.238,0.339 -3.16,1.019 -1,1.387 -1.5,3.254 -1.5,5.602 0,1.957 0.41,3.488 1.234,4.59 0.825,1.105 2.012,1.656 3.567,1.656 m -0.235,2.012 c -2.304,0 -4.171,-0.723 -5.593,-2.176 -1.422,-1.45 -2.137,-3.375 -2.137,-5.785 0,-2.684 0.766,-4.84 2.285,-6.477 1.524,-1.633 3.516,-2.453 5.977,-2.453 2.23,0 4.035,0.734 5.414,2.199 1.375,1.465 2.062,3.41 2.062,5.832 0,2.59 -0.742,4.715 -2.226,6.371 -1.485,1.66 -3.41,2.489 -5.782,2.489"
           style="fill:#ffffff;fill-opacity:1;fill-rule:nonzero;stroke:none"
           transform="scale(1.3333333)"
           clip-path="url(#clipPath4201)"
           id="path4202" />
      </g>
      <g
         id="g4204"
         transform="matrix(0.26458333,0,0,0.26458333,0.59410768,0.22163137)"
         style="fill:#ffffff;fill-opacity:1">
        <path
           d="m 177.07,55.453 -2.261,0.231 -2.079,-2.778 c -1.492,-2.004 -3.789,-4.933 -6.898,-8.793 0.063,6.016 0.184,9.188 0.371,9.512 0.031,0.047 0.078,0.094 0.149,0.137 0.07,0.047 0.164,0.09 0.289,0.129 0.121,0.039 0.242,0.078 0.355,0.117 0.117,0.039 0.266,0.074 0.453,0.113 0.184,0.039 0.328,0.074 0.438,0.106 0.105,0.031 0.269,0.07 0.484,0.117 0.215,0.043 0.367,0.074 0.461,0.09 l -0.23,1.16 h -6.622 l -0.23,-1.16 2.051,-0.602 c 0.109,-0.926 0.164,-3.008 0.164,-6.246 -0.016,-3.902 -0.11,-5.973 -0.277,-6.203 -0.293,-0.215 -0.961,-0.492 -2.008,-0.832 l 0.23,-1.156 c 0.305,0 1.801,-0.024 4.477,-0.071 1.015,1.684 3.945,5.571 8.793,11.664 -0.032,-6.031 -0.164,-9.242 -0.395,-9.625 -0.09,-0.156 -0.898,-0.425 -2.422,-0.812 l 0.254,-1.156 h 6.574 l 0.254,1.156 -2.074,0.625 c -0.203,1.961 -0.301,6.719 -0.301,14.277"
           style="fill:#ffffff;fill-opacity:1;fill-rule:nonzero;stroke:none"
           transform="scale(1.3333333)"
           clip-path="url(#clipPath4203)"
           id="path4204" />
      </g>
      <g
         id="g4206"
         transform="matrix(0.26458333,0,0,0.26458333,0.59410768,0.22163137)"
         style="fill:#ffffff;fill-opacity:1">
        <path
           d="m 184.914,54.434 2.102,-0.602 c 0.078,-0.43 0.113,-1.875 0.113,-4.324 v -8.563 h -0.414 c -1.121,0 -2.055,0.047 -2.793,0.137 l -0.645,3.012 c -0.8,0.027 -1.476,0.004 -2.031,-0.071 -0.047,-1.511 -0.047,-3.054 0,-4.628 h 7.777 c 3.059,0 5.286,-0.047 6.668,-0.141 0.356,0.465 0.539,0.719 0.555,0.766 -0.062,0.957 -0.195,2.296 -0.394,4.027 -0.52,0.058 -1.129,0.051 -1.821,-0.024 l -0.578,-2.941 c -0.633,-0.078 -1.531,-0.113 -2.699,-0.113 h -0.602 v 8.676 c 0,2.515 0.063,3.855 0.188,4.027 0.105,0.168 0.781,0.422 2.027,0.762 l -0.254,1.156 h -6.945 z"
           style="fill:#ffffff;fill-opacity:1;fill-rule:nonzero;stroke:none"
           transform="scale(1.3333333)"
           clip-path="url(#clipPath4205)"
           id="path4206" />
      </g>
      <g
         id="g4208"
         transform="matrix(0.26458333,0,0,0.26458333,0.59410768,0.22163137)"
         style="fill:#ffffff;fill-opacity:1">
        <path
           d="m 203.812,45.48 v 1.551 l 4.153,0.137 c 0.508,-0.293 0.933,-0.727 1.269,-1.305 0.34,-0.578 0.508,-1.23 0.508,-1.957 0,-0.972 -0.277,-1.758 -0.828,-2.359 -0.586,-0.418 -1.5,-0.625 -2.746,-0.625 -0.648,0 -1.387,0.078 -2.215,0.23 -0.094,0.618 -0.141,2.059 -0.141,4.328 m -5.214,8.954 2.078,-0.602 c 0.09,-0.523 0.136,-1.965 0.136,-4.324 V 45.34 c 0,-2.512 -0.062,-3.856 -0.183,-4.024 -0.125,-0.171 -0.801,-0.425 -2.031,-0.765 l 0.254,-1.156 h 3.347 c 0.246,0 0.953,-0.024 2.121,-0.071 1.168,-0.047 1.953,-0.07 2.356,-0.07 1.969,0 3.492,0.383 4.566,1.148 1.078,0.762 1.617,1.883 1.617,3.368 0,1.773 -0.992,3.16 -2.976,4.164 1.492,2.961 2.574,4.925 3.254,5.898 l 1.777,0.602 -0.254,1.156 c -0.512,0 -1.871,0.031 -4.086,0.094 -0.601,-1.403 -1.722,-3.668 -3.367,-6.801 h -3.395 v 0.762 c 0,2.515 0.063,3.855 0.188,4.027 0.121,0.168 0.797,0.422 2.027,0.762 l -0.254,1.156 h -6.921 z"
           style="fill:#ffffff;fill-opacity:1;fill-rule:nonzero;stroke:none"
           transform="scale(1.3333333)"
           clip-path="url(#clipPath4207)"
           id="path4208" />
      </g>
      <g
         id="g4210"
         transform="matrix(0.26458333,0,0,0.26458333,0.59410768,0.22163137)"
         style="fill:#ffffff;fill-opacity:1">
        <path
           d="m 221.582,48.512 5.098,0.07 c -1.032,-2.887 -1.914,-5.309 -2.653,-7.27 -0.8,2.27 -1.617,4.668 -2.445,7.2 m 0.621,5.922 -0.254,1.16 h -6.344 l -0.23,-1.16 1.867,-0.602 c 0.953,-2.297 2.5,-6.352 4.641,-12.168 l 0.668,-2.269 c 1.199,-0.153 2.5,-0.247 3.898,-0.278 0.11,0.418 0.395,1.281 0.856,2.59 1.875,5.09 3.39,9.133 4.543,12.125 l 1.894,0.602 -0.23,1.16 h -7.016 l -0.254,-1.16 2.309,-0.602 c -0.418,-1.109 -0.848,-2.32 -1.293,-3.633 l -6.231,0.117 c -0.156,0.461 -0.367,1.106 -0.632,1.934 -0.274,0.824 -0.446,1.352 -0.524,1.582 z"
           style="fill:#ffffff;fill-opacity:1;fill-rule:nonzero;stroke:none"
           transform="scale(1.3333333)"
           clip-path="url(#clipPath4209)"
           id="path4210" />
      </g>
      <g
         id="g4212"
         transform="matrix(0.26458333,0,0,0.26458333,0.59410768,0.22163137)"
         style="fill:#ffffff;fill-opacity:1">
        <path
           d="m 235.426,54.434 2.078,-0.602 c 0.09,-0.523 0.137,-1.965 0.137,-4.324 V 45.34 c 0,-2.512 -0.063,-3.856 -0.184,-4.024 -0.125,-0.171 -0.801,-0.425 -2.031,-0.765 l 0.254,-1.156 h 6.922 l 0.253,1.156 -2.078,0.601 c -0.089,0.524 -0.136,1.969 -0.136,4.328 v 4.165 c 0,2.5 0.078,3.855 0.23,4.074 0.199,0.183 1.117,0.277 2.746,0.277 0.953,0 1.817,-0.039 2.586,-0.117 l 0.715,-3.078 c 0.812,-0.047 1.469,-0.016 1.961,0.094 0.047,1.386 0.031,2.953 -0.047,4.695 H 235.68 Z"
           style="fill:#ffffff;fill-opacity:1;fill-rule:nonzero;stroke:none"
           transform="scale(1.3333333)"
           clip-path="url(#clipPath4211)"
           id="path4212" />
      </g>
      <g
         id="g4214"
         transform="matrix(0.26458333,0,0,0.26458333,0.59410768,0.22163137)"
         style="fill:#ffffff;fill-opacity:1">
        <path
           d="m 259.191,53.926 c 1.309,0 2.364,-0.348 3.164,-1.043 0.969,-1.262 1.454,-3.059 1.454,-5.391 0,-2.051 -0.391,-3.637 -1.164,-4.754 -0.778,-1.117 -1.977,-1.679 -3.59,-1.679 -1.184,0 -2.239,0.339 -3.16,1.019 -1,1.387 -1.5,3.254 -1.5,5.602 0,1.957 0.41,3.488 1.234,4.59 0.82,1.105 2.012,1.656 3.562,1.656 m -0.23,2.012 c -2.305,0 -4.172,-0.723 -5.594,-2.176 -1.426,-1.45 -2.137,-3.375 -2.137,-5.785 0,-2.684 0.762,-4.84 2.286,-6.477 1.523,-1.633 3.515,-2.453 5.976,-2.453 2.231,0 4.035,0.734 5.41,2.199 1.379,1.465 2.067,3.41 2.067,5.832 0,2.59 -0.742,4.715 -2.227,6.371 -1.484,1.66 -3.41,2.489 -5.781,2.489"
           style="fill:#ffffff;fill-opacity:1;fill-rule:nonzero;stroke:none"
           transform="scale(1.3333333)"
           clip-path="url(#clipPath4213)"
           id="path4214" />
      </g>
      <g
         id="g4216"
         transform="matrix(0.26458333,0,0,0.26458333,0.59410768,0.22163137)"
         style="fill:#ffffff;fill-opacity:1">
        <path
           d="m 275,45.48 v 1.551 l 4.152,0.137 c 0.508,-0.293 0.93,-0.727 1.27,-1.305 0.336,-0.578 0.508,-1.23 0.508,-1.957 0,-0.972 -0.278,-1.758 -0.832,-2.359 -0.586,-0.418 -1.5,-0.625 -2.746,-0.625 -0.645,0 -1.383,0.078 -2.215,0.23 C 275.043,41.77 275,43.211 275,45.48 m -5.215,8.954 2.074,-0.602 C 271.953,53.309 272,51.867 272,49.508 V 45.34 c 0,-2.512 -0.062,-3.856 -0.184,-4.024 -0.125,-0.171 -0.8,-0.425 -2.031,-0.765 l 0.254,-1.156 h 3.344 c 0.246,0 0.953,-0.024 2.125,-0.071 1.168,-0.047 1.953,-0.07 2.351,-0.07 1.969,0 3.493,0.383 4.571,1.148 1.074,0.762 1.613,1.883 1.613,3.368 0,1.773 -0.992,3.16 -2.977,4.164 1.493,2.961 2.579,4.925 3.254,5.898 l 1.778,0.602 -0.254,1.156 c -0.508,0 -1.867,0.031 -4.086,0.094 -0.598,-1.403 -1.723,-3.668 -3.367,-6.801 H 275 v 0.762 c 0,2.515 0.059,3.855 0.184,4.027 0.121,0.168 0.8,0.422 2.031,0.762 l -0.254,1.156 h -6.922 z"
           style="fill:#ffffff;fill-opacity:1;fill-rule:nonzero;stroke:none"
           transform="scale(1.3333333)"
           clip-path="url(#clipPath4215)"
           id="path4216" />
      </g>
      <g
         id="g4218"
         transform="matrix(0.26458333,0,0,0.26458333,0.59410768,0.22163137)"
         style="fill:#ffffff;fill-opacity:1">
        <path
           d="m 287.922,54.434 2.074,-0.602 c 0.094,-0.523 0.141,-1.965 0.141,-4.324 V 45.34 c 0,-2.512 -0.063,-3.856 -0.184,-4.024 -0.125,-0.171 -0.801,-0.425 -2.031,-0.765 l 0.254,-1.156 h 6.922 l 0.254,1.156 -2.079,0.601 c -0.089,0.524 -0.136,1.969 -0.136,4.328 v 4.165 c 0,2.515 0.058,3.855 0.183,4.027 0.121,0.168 0.801,0.422 2.032,0.762 l -0.254,1.156 h -6.922 z"
           style="fill:#ffffff;fill-opacity:1;fill-rule:nonzero;stroke:none"
           transform="scale(1.3333333)"
           clip-path="url(#clipPath4217)"
           id="path4218" />
      </g>
      <g
         id="g4220"
         transform="matrix(0.26458333,0,0,0.26458333,0.59410768,0.22163137)"
         style="fill:#ffffff;fill-opacity:1">
        <path
           d="m 303.242,48.512 5.102,0.07 c -1.032,-2.887 -1.918,-5.309 -2.656,-7.27 -0.801,2.27 -1.614,4.668 -2.446,7.2 m 0.621,5.922 -0.254,1.16 h -6.343 l -0.231,-1.16 1.867,-0.602 c 0.957,-2.297 2.5,-6.352 4.641,-12.168 l 0.668,-2.269 c 1.199,-0.153 2.5,-0.247 3.898,-0.278 0.11,0.418 0.395,1.281 0.856,2.59 1.875,5.09 3.39,9.133 4.547,12.125 l 1.89,0.602 -0.23,1.16 h -7.016 l -0.254,-1.16 2.309,-0.602 c -0.414,-1.109 -0.848,-2.32 -1.293,-3.633 l -6.23,0.117 c -0.153,0.461 -0.364,1.106 -0.633,1.934 -0.27,0.824 -0.446,1.352 -0.52,1.582 z"
           style="fill:#ffffff;fill-opacity:1;fill-rule:nonzero;stroke:none"
           transform="scale(1.3333333)"
           clip-path="url(#clipPath4219)"
           id="path4220" />
      </g>
      <g
         id="g4222"
         transform="matrix(0.26458333,0,0,0.26458333,0.59410768,0.22163137)"
         style="fill:#ffffff;fill-opacity:1">
        <path
           d="m 133.137,66.812 c 1.937,0 3.566,0.411 4.89,1.227 l 0.348,0.649 c -0.184,1.156 -0.402,2.328 -0.648,3.519 -0.723,0.043 -1.352,0.02 -1.891,-0.07 -0.137,-1.203 -0.277,-2.129 -0.414,-2.778 -0.617,-0.433 -1.473,-0.648 -2.563,-0.648 -1.015,0 -1.816,0.215 -2.398,0.648 -0.34,0.539 -0.508,1.098 -0.508,1.664 0,0.602 0.215,1.133 0.645,1.586 0.429,0.457 0.964,0.813 1.601,1.067 0.641,0.254 1.336,0.547 2.09,0.879 0.754,0.332 1.449,0.668 2.09,1.004 0.637,0.343 1.172,0.82 1.601,1.437 0.43,0.617 0.649,1.34 0.649,2.172 0,1.359 -0.555,2.457 -1.664,3.289 -1.106,0.832 -2.59,1.25 -4.453,1.25 -2.047,0 -3.938,-0.473 -5.676,-1.414 l -0.066,-0.231 c -0.032,-1.218 -0.012,-2.359 0.066,-3.425 0.633,-0.106 1.309,-0.137 2.031,-0.094 0.168,0.914 0.352,1.762 0.555,2.547 0.308,0.215 0.762,0.398 1.359,0.543 0.602,0.148 1.192,0.222 1.778,0.222 0.968,0 1.761,-0.156 2.379,-0.464 0.367,-0.477 0.55,-1.055 0.55,-1.735 0,-0.664 -0.293,-1.222 -0.886,-1.679 -0.594,-0.454 -1.309,-0.836 -2.149,-1.145 -0.836,-0.309 -1.676,-0.648 -2.512,-1.016 -0.839,-0.371 -1.554,-0.902 -2.148,-1.597 -0.59,-0.696 -0.887,-1.551 -0.887,-2.571 0,-1.418 0.598,-2.578 1.801,-3.48 1.199,-0.902 2.676,-1.356 4.43,-1.356"
           style="fill:#ffffff;fill-opacity:1;fill-rule:nonzero;stroke:none"
           transform="scale(1.3333333)"
           clip-path="url(#clipPath4221)"
           id="path4222" />
      </g>
      <g
         id="g4224"
         transform="matrix(0.26458333,0,0,0.26458333,0.59410768,0.22163137)"
         style="fill:#ffffff;fill-opacity:1">
        <path
           d="m 149.379,81.691 c 1.309,0 2.363,-0.347 3.164,-1.039 0.969,-1.265 1.453,-3.062 1.453,-5.394 0,-2.051 -0.391,-3.633 -1.164,-4.754 -0.777,-1.117 -1.973,-1.676 -3.59,-1.676 -1.183,0 -2.238,0.34 -3.16,1.016 -1,1.39 -1.5,3.258 -1.5,5.601 0,1.961 0.41,3.489 1.234,4.594 0.821,1.102 2.012,1.652 3.563,1.652 m -0.231,2.012 c -2.304,0 -4.171,-0.723 -5.593,-2.172 -1.426,-1.449 -2.137,-3.379 -2.137,-5.785 0,-2.684 0.762,-4.844 2.285,-6.48 1.524,-1.633 3.516,-2.454 5.977,-2.454 2.23,0 4.035,0.735 5.41,2.2 1.379,1.465 2.066,3.41 2.066,5.832 0,2.59 -0.742,4.715 -2.226,6.375 -1.485,1.656 -3.41,2.484 -5.782,2.484"
           style="fill:#ffffff;fill-opacity:1;fill-rule:nonzero;stroke:none"
           transform="scale(1.3333333)"
           clip-path="url(#clipPath4223)"
           id="path4224" />
      </g>
      <g
         id="g4226"
         transform="matrix(0.26458333,0,0,0.26458333,0.59410768,0.22163137)"
         style="fill:#ffffff;fill-opacity:1">
        <path
           d="m 168.117,81.621 c 1.34,0 2.301,-0.207 2.883,-0.621 0.449,-1.836 0.68,-2.801 0.695,-2.895 0.766,-0.046 1.453,-0.015 2.051,0.094 0.047,0.586 0.07,1.68 0.07,3.285 l -0.3,0.625 c -1.567,1.063 -3.477,1.594 -5.723,1.594 -2.477,0 -4.438,-0.734 -5.883,-2.207 -1.445,-1.473 -2.168,-3.492 -2.168,-6.051 0,-2.562 0.805,-4.64 2.422,-6.238 1.617,-1.594 3.629,-2.395 6.047,-2.395 1.828,0 3.621,0.45 5.375,1.344 l 0.324,0.625 c -0.109,0.68 -0.34,2.012 -0.695,4.004 -0.754,0.043 -1.391,0.016 -1.914,-0.094 -0.031,-0.187 -0.223,-1.281 -0.578,-3.285 -0.707,-0.402 -1.59,-0.601 -2.653,-0.601 -1.351,0 -2.461,0.308 -3.32,0.925 -1.203,1.434 -1.801,3.278 -1.801,5.528 0,1.961 0.457,3.512 1.371,4.652 0.918,1.141 2.184,1.711 3.797,1.711"
           style="fill:#ffffff;fill-opacity:1;fill-rule:nonzero;stroke:none"
           transform="scale(1.3333333)"
           clip-path="url(#clipPath4225)"
           id="path4226" />
      </g>
      <g
         id="g4228"
         transform="matrix(0.26458333,0,0,0.26458333,0.59410768,0.22163137)"
         style="fill:#ffffff;fill-opacity:1">
        <path
           d="m 176.793,82.203 2.078,-0.605 c 0.09,-0.524 0.137,-1.965 0.137,-4.325 v -4.164 c 0,-2.515 -0.063,-3.859 -0.184,-4.027 -0.125,-0.172 -0.801,-0.426 -2.031,-0.766 l 0.254,-1.156 h 6.922 l 0.254,1.156 -2.078,0.602 c -0.09,0.527 -0.137,1.969 -0.137,4.328 v 4.168 c 0,2.512 0.062,3.856 0.183,4.024 0.125,0.167 0.801,0.425 2.032,0.765 l -0.254,1.156 h -6.922 z"
           style="fill:#ffffff;fill-opacity:1;fill-rule:nonzero;stroke:none"
           transform="scale(1.3333333)"
           clip-path="url(#clipPath4227)"
           id="path4228" />
      </g>
      <g
         id="g4230"
         transform="matrix(0.26458333,0,0,0.26458333,0.59410768,0.22163137)"
         style="fill:#ffffff;fill-opacity:1">
        <path
           d="m 192.113,76.277 5.102,0.071 c -1.031,-2.887 -1.918,-5.309 -2.656,-7.266 -0.797,2.266 -1.614,4.664 -2.446,7.195 m 0.625,5.926 -0.254,1.156 h -6.347 l -0.231,-1.156 1.871,-0.601 c 0.953,-2.301 2.5,-6.356 4.637,-12.172 l 0.668,-2.27 c 1.203,-0.152 2.5,-0.246 3.902,-0.277 0.106,0.418 0.391,1.281 0.852,2.594 1.879,5.089 3.391,9.128 4.547,12.125 l 1.89,0.601 -0.23,1.156 h -7.012 l -0.254,-1.156 2.305,-0.601 c -0.414,-1.114 -0.844,-2.325 -1.293,-3.633 l -6.23,0.113 c -0.153,0.465 -0.364,1.106 -0.633,1.934 -0.27,0.824 -0.442,1.351 -0.52,1.586 z"
           style="fill:#ffffff;fill-opacity:1;fill-rule:nonzero;stroke:none"
           transform="scale(1.3333333)"
           clip-path="url(#clipPath4229)"
           id="path4230" />
      </g>
      <g
         id="g4232"
         transform="matrix(0.26458333,0,0,0.26458333,0.59410768,0.22163137)"
         style="fill:#ffffff;fill-opacity:1">
        <path
           d="m 205.961,82.203 2.074,-0.605 c 0.094,-0.524 0.141,-1.965 0.141,-4.325 v -4.164 c 0,-2.515 -0.063,-3.859 -0.184,-4.027 -0.125,-0.172 -0.804,-0.426 -2.031,-0.766 l 0.254,-1.156 h 6.922 l 0.254,1.156 -2.079,0.602 c -0.093,0.527 -0.136,1.969 -0.136,4.328 v 4.168 c 0,2.496 0.074,3.856 0.23,4.07 0.199,0.184 1.114,0.278 2.742,0.278 0.957,0 1.817,-0.039 2.586,-0.117 l 0.715,-3.075 c 0.817,-0.047 1.469,-0.019 1.965,0.09 0.043,1.391 0.027,2.953 -0.047,4.699 h -13.152 z"
           style="fill:#ffffff;fill-opacity:1;fill-rule:nonzero;stroke:none"
           transform="scale(1.3333333)"
           clip-path="url(#clipPath4231)"
           id="path4232" />
      </g>
      <g
         id="g4234"
         transform="matrix(0.26458333,0,0,0.26458333,0.59410768,0.22163137)"
         style="fill:#ffffff;fill-opacity:1">
        <path
           d="m 296.125,32.078 -4.391,5.16 h -2.265 l 3.164,-5.16 z"
           style="fill:#ffffff;fill-opacity:1;fill-rule:nonzero;stroke:none"
           transform="scale(1.3333333)"
           clip-path="url(#clipPath4233)"
           id="path4234" />
      </g>
    </g>
  </g>
</svg>
