<?xml version="1.0" encoding="utf-8"?>
<!-- Generator: Adobe Illustrator 25.0.0, SVG Export Plug-In . SVG Version: 6.00 Build 0)  -->
<svg version="1.1"
	 id="svg13" inkscape:version="0.92.4 (5da689c313, 2019-01-14)" sodipodi:docname="seguimiento.svg" xmlns:cc="http://creativecommons.org/ns#" xmlns:dc="http://purl.org/dc/elements/1.1/" xmlns:inkscape="http://www.inkscape.org/namespaces/inkscape" xmlns:rdf="http://www.w3.org/1999/02/22-rdf-syntax-ns#" xmlns:sodipodi="http://sodipodi.sourceforge.net/DTD/sodipodi-0.dtd" xmlns:svg="http://www.w3.org/2000/svg"
	 xmlns="http://www.w3.org/2000/svg" xmlns:xlink="http://www.w3.org/1999/xlink" x="0px" y="0px" viewBox="0 0 150 150"
	 style="enable-background:new 0 0 150 150;" xml:space="preserve">
<style type="text/css">
	.st0{fill:#00AAAB;}
	.st1{fill:#FFFFFF;}
	.st2{fill:#FFFFFF;stroke:#FFFFFF;stroke-width:1;}
</style>
<sodipodi:namedview  bordercolor="#666666" borderopacity="1" gridtolerance="10" guidetolerance="10" id="namedview15" inkscape:current-layer="svg13" inkscape:cx="-103.66241" inkscape:cy="49.802584" inkscape:pageopacity="0" inkscape:pageshadow="2" inkscape:window-height="731" inkscape:window-maximized="1" inkscape:window-width="1366" inkscape:window-x="0" inkscape:window-y="0" inkscape:zoom="1.1658311" objecttolerance="10" pagecolor="#ffffff" showgrid="false">
	<inkscape:grid  id="grid834" type="xygrid"></inkscape:grid>
</sodipodi:namedview>
<circle id="path5116" class="st0" cx="75.3" cy="74.8" r="72.5"/>
<g id="g947" transform="matrix(0.10084804,0,0,0.10084804,38.639356,-23.560321)">
	
		<path id="path866" inkscape:connector-curvature="0" sodipodi:nodetypes="ccscsccscccscsccsccscccccscsccccccccccccccccccccccsscccccccccccccccccccccccsccsccccccccccscccccscccsccccccccccccsccscscscccccccccccssccccsccccsccsccccsccscscc" class="st1" d="
		M-52.1,1394.8c-1.5-0.9-3.3-3.1-4.2-4.9c-1.4-3-1.6-43.6-1.6-414.2c0-363.9,0.1-411.3,1.5-414.5c3.1-7.4-18.2-6.8,237.6-6.8
		c220.3,0,230.1,0.1,232.9,1.8c1.6,1,5.7,4.5,9.2,7.8c13.8,13,39.2,36.9,79.8,74.6c53.8,50,58.5,54.4,75.5,70.3
		c7.7,7.2,17.1,16,21,19.5c6.2,5.7,14.2,13.2,22.4,21c1.4,1.4,7.7,7.2,14,13s12,11.9,12.8,13.7c1.1,2.6,1.4,15,1.4,63.7v60.4
		l5.8,9.8c28.7,48.8,35.5,103.2,19.3,153.9c-9.6,29.9-27.3,57-51.6,78.5c-13,11.6-12.7,10.3-5.1,20c1.9,2.5,5.8,7.9,8.7,12
		c2.8,4.1,6.5,9.2,8.1,11.2l2.9,3.7l15.2-10.2c14.4-9.7,15.5-10.2,20.4-10.2c4.1,0,5.7,0.5,7.8,2.5c1.4,1.4,11.4,15.1,22,30.5
		c10.7,15.4,25,36.1,31.9,46c6.9,9.9,15.7,22.7,19.7,28.5s10.3,14.9,14.1,20.3c14.1,20,18.1,34.9,14.3,53.2
		c-4.2,20.1-18.5,36.6-38.1,43.7c-8.1,3-25.2,3.6-34.8,1.4c-9.1-2.1-19.6-7.8-26.6-14.3c-3.4-3.2-11.2-13.3-19.6-25.3l-13.9-20.1
		l-0.5,26.3c-0.5,27.9-0.7,28.8-5.6,32.7l-2.6,2.1l-345.6,0C-22.5,1396.4-49.6,1396.3-52.1,1394.8L-52.1,1394.8z M498.3,1371.6
		l125.8-0.1v-37.1v-37.1l-14.7-21.2c-30.1-43.2-28.6-40.4-25.7-47.6c1.5-3.8,3.3-5.3,16.8-14.2c8.3-5.5,15.3-10.1,15.5-10.3
		c0.2-0.2-3.4-5.7-7.9-12.1c-4.5-6.5-8.5-12.6-8.7-13.5s-0.9-1.8-1.3-1.8c-0.5,0-1.9-1.8-3.1-4c-1.3-2.2-2.9-4.2-3.7-4.5
		c-0.8-0.3-4.8,1.2-9,3.4c-15.2,7.9-34.3,14.1-54.1,17.8c-12,2.2-48.5,2.5-60,0.5c-10.4-1.8-30.2-7-37.8-9.8
		c0,0-177.6-75.5-112.2-249.4c0.5,0,3.2-4.5,6-10.1c18.5-37,46.5-64.4,84.4-83c21.8-10.7,41.1-15.9,67.6-18.5
		c22.1-2.1,43-0.3,65.7,5.6c26.5,6.9,50.2,19,72,36.6l10.3,8.3l-0.3-37.8l-0.3-37.8l-111.2-0.5L401.1,793l-3.3-3.3l-3.3-3.3
		L394.3,683l-0.3-103.5h-213h-213l0,156.8c0,204.6,0,572.1,0,607.5l0,27.7l193.8,0.3c106.6,0.1,197.6,0.2,202.3,0.1
		C368.8,1371.8,429.2,1371.7,498.3,1371.6L498.3,1371.6z M14.6,832.5c-3.4-1.4-6.4-4.9-7.6-8.9c-1-3.3-0.9-4.4,0.7-7.7
		c1-2.1,3.1-4.7,4.7-5.8l2.8-2.1h161.9H339l3.7,3.7c3.2,3.2,3.7,4.3,3.7,8.5c0,5.7-2.2,9.5-6.8,11.7c-3,1.4-19.2,1.6-163.2,1.5
		C88.5,833.4,15.7,833,14.6,832.5z M12.8,747.6c-4.2-2.8-6-6-6-10.7c0-4.6,2-8.5,5.7-10.9c2.4-1.6-1.1-1.6,246.5-1.5l80.4,0l3.3,3.3
		c6.1,6.1,5.3,15.4-1.7,19.7c-3.3,2-4.6,2-164.3,2C21.6,749.5,15.5,749.4,12.8,747.6L12.8,747.6z M13,664
		c-7.6-4.1-8.5-15.3-1.8-20.9l3-2.6h162.3h162.3l3.1,2.6c6.4,5.4,6,15.6-0.8,20.1l-3.4,2.3l-161.1,0C39.6,665.4,15.2,665.2,13,664z
		 M735.1,1369.9c14.5-4.3,24-16.9,24-31.9c0-9.4-2.6-14.9-15.8-33.7c-6.5-9.2-18-25.8-25.7-36.9s-16.2-23.4-18.9-27.3
		c-2.7-3.9-10.1-14.5-16.4-23.6c-6.3-9.1-12-16.4-12.8-16.4c-1.8,0.2-55.4,35.7-55.4,36.7c0,1-1-0.4,27.2,40.1
		c11.8,17.1,29.6,42.7,39.5,57c19.7,28.5,23.1,32,33.8,35.5C722,1371.8,728.1,1372,735.1,1369.9z M519.1,1164.5
		c33.7-4.5,67.7-21.2,92.6-45.5c23.5-23,38.8-52.2,44.5-84.7c1.9-11,2.1-15.1,1.7-30c-0.8-25.7-5.2-43.5-16.7-67.3
		c-10-20.7-22.8-37.6-39.3-52.2c-46.3-40.9-113.2-52.4-171-29.3C379.4,876,343,920.2,332.4,975c-2.7,14-2.5,42.6,0.5,57.2
		C350.1,1118.1,431.9,1176.2,519.1,1164.5z M447.5,1134.1c-39.6-14.6-69.1-44.7-83.4-85.2c-6.5-18.4-8.8-46.1-5.5-64.9
		c0.8-4.4,1.7-9.5,2-11.3c1.9-11.5,11.1-17.8,19.3-13.2c6.5,3.7,8.5,9,6.2,17c-1.8,6.4-4,21.9-4,28.8c0,8.9,3.3,27.2,6.6,36.4
		c12.1,33.7,38.5,59,73.1,70.3c7.2,2.3,10.3,6.2,10.3,12.6c0,4.2-0.5,5.5-3.3,8.5C464.1,1138.3,459.3,1138.5,447.5,1134.1z
		 M600.1,763.8c-5-4.3-38.4-35.3-107.5-99.8c-15.3-14.3-31.7-29.6-36.4-33.9c-4.7-4.4-14.3-13.4-21.4-20
		c-7.1-6.6-13.3-12.2-13.8-12.4c-0.5-0.2-0.9,34.7-0.9,85.2v85.6l91.3,0.3c50.2,0.1,91.7-0.1,92.2-0.5
		C604,767.8,602.5,765.8,600.1,763.8z"/>
	<path id="path866-6-7" inkscape:connector-curvature="0" sodipodi:nodetypes="cccccccscccccscccscccc" class="st1" d="M14,1326
		c-3.4-1.4-6.4-4.9-7.6-8.9c-1-3.3-0.9-4.4,0.7-7.7c1-2.1,3.1-4.7,4.7-5.8l2.8-2.1h161.9h161.9l3.7,3.7c3.2,3.2,3.7,4.3,3.7,8.5
		c0,5.7-2.2,9.5-6.8,11.7c-3,1.4-19.2,1.6-163.2,1.5C88,1326.9,15.1,1326.5,14,1326L14,1326z M12.2,1241.1c-4.2-2.8-6-6-6-10.7
		c0-4.6,2-8.5,5.7-10.9c2.4-1.6-1.1-1.6,246.5-1.5l80.4,0l3.3,3.3c6.1,6.1,5.3,15.4-1.7,19.7c-3.3,2-4.6,2-164.3,2
		C21.1,1243,14.9,1242.9,12.2,1241.1L12.2,1241.1z"/>
	<path id="path866-6-7-5" inkscape:connector-curvature="0" sodipodi:nodetypes="cccccccscccc" class="st1" d="M255.2,1326
		c-3.4-1.4-6.4-4.9-7.6-8.9c-1-3.3-0.9-4.4,0.7-7.7c1-2.1,3.1-4.7,4.7-5.8l2.8-2.1h161.9h161.9l3.7,3.7c3.2,3.2,3.7,4.3,3.7,8.5
		c0,5.7-2.2,9.5-6.8,11.7c-3,1.4-19.2,1.6-163.2,1.5C329.1,1326.8,256.3,1326.4,255.2,1326L255.2,1326z"/>
	
		<path id="path853-3" inkscape:connector-curvature="0" sodipodi:nodetypes="csssssscssccsssssssssssssccscscsscscsscc" class="st1" d="
		M151.1,1176.1c-9.4-3.1-12.2-5.5-27.5-23.9c-45.6-54.4-74.2-100.6-83.5-134.8c-2.6-9.5-2.8-29.6-0.4-40.8
		c5.3-24.6,16.1-44.6,33.6-62.1c25.2-25.2,58-38.1,92.4-36.2c56.8,3,102.4,42.4,114.3,98.7c2.7,12.6,2.6,28.9,0,39.2
		c-8.8,33.8-37.4,80.4-83,135.1c-14.6,17.4-17.5,20.3-24.1,23.3C167.1,1177.2,156.5,1177.9,151.1,1176.1L151.1,1176.1z M164.6,1155
		c1.2-0.5,5.9-5.4,10.5-10.8c49.7-58.4,80.6-109,85.2-139.7c2.4-15.9-3.4-40-13.8-57.2c-22.2-36.7-63.9-54.9-106.9-46.7
		c-46.8,8.9-82.3,52.6-80.5,99c0.3,8.4,0.8,11.2,3.5,19.4c9.4,28.6,36,70.1,74.8,116.9c13.2,15.9,14.1,16.9,16.7,18.7
		C156.4,1156.2,161.5,1156.5,164.6,1155L164.6,1155z M151.3,1023.3c-3.9-0.9-11.1-4.5-15-7.5c-4.8-3.6-10.1-11.6-12.1-18.1
		c-2.7-8.9-2.1-19.5,1.6-27.3c3.6-7.7,10.9-15,18.6-18.6c7.8-3.7,18.4-4.3,27.3-1.6c15.5,4.7,26.5,19.6,26.5,35.8
		C198.3,1010.2,174.8,1028.9,151.3,1023.3z M171.3,1011.5c6.1-2.9,10.5-7.2,13.5-13.3c6.8-13.9,0.9-30-13.6-37
		c-5.7-2.7-15.9-2.8-21.8-0.1c-5.3,2.4-11,7.8-13.9,13.3c-2,3.7-2.3,5.3-2.3,11.9c0,6.4,0.3,8.3,2,11.5c2.4,4.5,8,10.6,11.6,12.5
		C154.4,1014.5,164.1,1014.9,171.3,1011.5L171.3,1011.5z"/>
</g>
<path id="path822" inkscape:connector-curvature="0" class="st2" d="M54.2,93.2l-8.5-11l-1.4-5.7l0.9-4.2l3.5-3.6l3.9-1.6l4.2-0.4
	l5.3,2.1l3,4.5l0.8,3.8l-0.4,3.4l-1.9,4.1L59.8,89l-2,3l-0.8,1l-0.6,1.2L54.2,93.2z"/>
<ellipse id="path835" class="st0" cx="55" cy="75.8" rx="3.4" ry="3.2"/>
</svg>
