<?xml version="1.0" encoding="UTF-8" standalone="no"?>
<!-- Created with Inkscape (http://www.inkscape.org/) -->

<svg
   version="1.1"
   id="svg1"
   width="1631.5039"
   height="1631.4581"
   viewBox="0 0 1631.5039 1631.4581"
   sodipodi:docname="list-2389219_1920.png"
   xmlns:inkscape="http://www.inkscape.org/namespaces/inkscape"
   xmlns:sodipodi="http://sodipodi.sourceforge.net/DTD/sodipodi-0.dtd"
   xmlns="http://www.w3.org/2000/svg"
   xmlns:svg="http://www.w3.org/2000/svg">
  <defs
     id="defs1" />
  <sodipodi:namedview
     id="namedview1"
     pagecolor="#ffffff"
     bordercolor="#000000"
     borderopacity="0.25"
     inkscape:showpageshadow="2"
     inkscape:pageopacity="0.0"
     inkscape:pagecheckerboard="0"
     inkscape:deskcolor="#d1d1d1" />
  <g
     inkscape:groupmode="layer"
     inkscape:label="Image"
     id="g1"
     transform="translate(-2212.6301,21.927113)">
    <g
       id="g2"
       transform="translate(2066.2561,-168.0389)">
      <path
         style="fill:#9bd8d3"
         d="m 950.25,1777.2532 c 6.4625,-0.1742 17.0375,-0.1742 23.5,0 6.4625,0.1742 1.175,0.3167 -11.75,0.3167 -12.925,0 -18.2125,-0.1425 -11.75,-0.3167 z m -32.5,-0.9589 c 1.2375,-0.2384 3.2625,-0.2384 4.5,0 1.2375,0.2383 0.225,0.4333 -2.25,0.4333 -2.475,0 -3.4875,-0.195 -2.25,-0.4333 z m 84,0 c 1.2375,-0.2384 3.2625,-0.2384 4.5,0 1.2375,0.2383 0.225,0.4333 -2.25,0.4333 -2.475,0 -3.4875,-0.195 -2.25,-0.4333 z m -99.98834,-1.0016 c 1.24391,-0.2392 3.04391,-0.2301 4,0.02 0.95609,0.2503 -0.0617,0.446 -2.26166,0.4349 -2.2,-0.011 -2.98225,-0.2159 -1.73834,-0.4551 z m 117.00004,0 c 1.2439,-0.2392 3.0439,-0.2301 4,0.02 0.956,0.2503 -0.062,0.446 -2.2617,0.4349 -2.2,-0.011 -2.9823,-0.2159 -1.7383,-0.4551 z m -128.49267,-0.9857 c 0.97297,-0.2535 2.32297,-0.2369 3,0.037 0.67703,0.2739 -0.11903,0.4813 -1.76903,0.461 -1.65,-0.02 -2.20394,-0.2445 -1.23097,-0.4981 z m 140.48097,0.031 c 0.6875,-0.2774 1.8125,-0.2774 2.5,0 0.6875,0.2774 0.125,0.5044 -1.25,0.5044 -1.375,0 -1.9375,-0.227 -1.25,-0.5044 z m -152.48097,-1.0307 c 0.97297,-0.2535 2.32297,-0.2369 3,0.037 0.67703,0.2739 -0.11903,0.4813 -1.76903,0.461 -1.65,-0.02 -2.20394,-0.2445 -1.23097,-0.4981 z m 164.48097,0.031 c 0.6875,-0.2774 1.8125,-0.2774 2.5,0 0.6875,0.2774 0.125,0.5044 -1.25,0.5044 -1.375,0 -1.9375,-0.227 -1.25,-0.5044 z m -173,-1 c 0.6875,-0.2774 1.8125,-0.2774 2.5,0 0.6875,0.2774 0.125,0.5044 -1.25,0.5044 -1.375,0 -1.9375,-0.227 -1.25,-0.5044 z m 182,0 c 0.6875,-0.2774 1.8125,-0.2774 2.5,0 0.6875,0.2774 0.125,0.5044 -1.25,0.5044 -1.375,0 -1.9375,-0.227 -1.25,-0.5044 z m -190.9375,-1.0208 c 0.72187,-0.2889 1.58438,-0.2534 1.91667,0.079 0.33229,0.3323 -0.25834,0.5687 -1.3125,0.5253 -1.16495,-0.048 -1.4019,-0.285 -0.60417,-0.6042 z m 199.9375,0.021 c 0.6875,-0.2774 1.8125,-0.2774 2.5,0 0.6875,0.2774 0.125,0.5044 -1.25,0.5044 -1.375,0 -1.9375,-0.227 -1.25,-0.5044 z m -206.9375,-1.0208 c 0.72187,-0.2889 1.58438,-0.2534 1.91667,0.079 0.33229,0.3323 -0.25834,0.5687 -1.3125,0.5253 -1.16495,-0.048 -1.4019,-0.285 -0.60417,-0.6042 z m 215,0 c 0.7219,-0.2889 1.5844,-0.2534 1.9167,0.079 0.3323,0.3323 -0.2584,0.5687 -1.3125,0.5253 -1.165,-0.048 -1.4019,-0.285 -0.6042,-0.6042 z m -222,-1 c 0.72187,-0.2889 1.58438,-0.2534 1.91667,0.079 0.33229,0.3323 -0.25834,0.5687 -1.3125,0.5253 -1.16495,-0.048 -1.4019,-0.285 -0.60417,-0.6042 z m 229,0 c 0.7219,-0.2889 1.5844,-0.2534 1.9167,0.079 0.3323,0.3323 -0.2584,0.5687 -1.3125,0.5253 -1.165,-0.048 -1.4019,-0.285 -0.6042,-0.6042 z m -237,-1 c 0.72187,-0.2889 1.58438,-0.2534 1.91667,0.079 0.33229,0.3323 -0.25834,0.5687 -1.3125,0.5253 -1.16495,-0.048 -1.4019,-0.285 -0.60417,-0.6042 z m 245,0 c 0.7219,-0.2889 1.5844,-0.2534 1.9167,0.079 0.3323,0.3323 -0.2584,0.5687 -1.3125,0.5253 -1.165,-0.048 -1.4019,-0.285 -0.6042,-0.6042 z m -257,-2 c 0.72187,-0.2889 1.58438,-0.2534 1.91667,0.079 0.33229,0.3323 -0.25834,0.5687 -1.3125,0.5253 -1.16495,-0.048 -1.4019,-0.285 -0.60417,-0.6042 z m -6,-1 c 0.72187,-0.2889 1.58438,-0.2534 1.91667,0.079 0.33229,0.3323 -0.25834,0.5687 -1.3125,0.5253 -1.16495,-0.048 -1.4019,-0.285 -0.60417,-0.6042 z m -6,-1 c 0.72187,-0.2889 1.58438,-0.2534 1.91667,0.079 0.33229,0.3323 -0.25834,0.5687 -1.3125,0.5253 -1.16495,-0.048 -1.4019,-0.285 -0.60417,-0.6042 z M 1479,1592.6224 c 0,-0.2076 0.7875,-0.9951 1.75,-1.75 1.5861,-1.2438 1.6214,-1.2085 0.3776,0.3776 -1.3064,1.6657 -2.1276,2.1955 -2.1276,1.3724 z M 437.87244,1587.25 c -1.24387,-1.5861 -1.2085,-1.6214 0.37756,-0.3776 0.9625,0.7549 1.75,1.5424 1.75,1.75 0,0.8231 -0.82119,0.2933 -2.12756,-1.3724 z M 1485,1587.6224 c 0,-0.2076 0.7875,-0.9951 1.75,-1.75 1.5861,-1.2438 1.6214,-1.2085 0.3776,0.3776 -1.3064,1.6657 -2.1276,2.1955 -2.1276,1.3724 z M 430.87244,1581.25 c -1.24387,-1.5861 -1.2085,-1.6214 0.37756,-0.3776 0.9625,0.7549 1.75,1.5424 1.75,1.75 0,0.8231 -0.82119,0.2933 -2.12756,-1.3724 z M 1492,1581.6224 c 0,-0.2076 0.7875,-0.9951 1.75,-1.75 1.5861,-1.2438 1.6214,-1.2085 0.3776,0.3776 -1.3064,1.6657 -2.1276,2.1955 -2.1276,1.3724 z M 423.40499,1574.75 421.5,1572.5 l 2.25,1.905 c 2.11444,1.7902 2.70524,2.595 1.90499,2.595 -0.18976,0 -1.20226,-1.0125 -2.25,-2.25 z M 1500.5,1574 c 0.9955,-1.1 2.035,-2 2.31,-2 0.275,0 -0.3145,0.9 -1.31,2 -0.9955,1.1 -2.035,2 -2.31,2 -0.275,0 0.3145,-0.9 1.31,-2 z m -1085.62756,-6.75 c -1.24387,-1.5861 -1.2085,-1.6214 0.37756,-0.3776 0.9625,0.7549 1.75,1.5424 1.75,1.75 0,0.8231 -0.82119,0.2933 -2.12756,-1.3724 z M 1510,1565.5 c 1.2917,-1.375 2.5736,-2.5 2.8486,-2.5 0.275,0 -0.5569,1.125 -1.8486,2.5 -1.2917,1.375 -2.5736,2.5 -2.8486,2.5 -0.275,0 0.5569,-1.125 1.8486,-2.5 z M 400.45295,1553.75 396.5,1549.5 l 4.25,3.9529 c 3.95246,3.6762 4.70953,4.5471 3.95295,4.5471 -0.16338,0 -2.07588,-1.9125 -4.25,-4.25 z M 1527,1549.5 c 3.5432,-3.575 6.6672,-6.5 6.9422,-6.5 0.275,0 -2.399,2.925 -5.9422,6.5 -3.5432,3.575 -6.6672,6.5 -6.9422,6.5 -0.275,0 2.399,-2.925 5.9422,-6.5 z m 22,-22 c 3.5432,-3.575 6.6672,-6.5 6.9422,-6.5 0.275,0 -2.399,2.925 -5.9422,6.5 -3.5432,3.575 -6.6672,6.5 -6.9422,6.5 -0.275,0 2.399,-2.925 5.9422,-6.5 z m -1181.07569,-6.25 -2.42431,-2.75 2.75,2.4243 c 2.57029,2.2659 3.20859,3.0757 2.42431,3.0757 -0.17912,0 -1.41662,-1.2375 -2.75,-2.75 z M 1565,1510.5 c 1.2917,-1.375 2.5736,-2.5 2.8486,-2.5 0.275,0 -0.5569,1.125 -1.8486,2.5 -1.2917,1.375 -2.5736,2.5 -2.8486,2.5 -0.275,0 0.5569,-1.125 1.8486,-2.5 z m -1209.12756,-2.25 c -1.24387,-1.5861 -1.2085,-1.6214 0.37756,-0.3776 1.66575,1.3064 2.19548,2.1276 1.37244,2.1276 -0.20765,0 -0.99515,-0.7875 -1.75,-1.75 z M 1573.5,1501 c 0.9955,-1.1 2.035,-2 2.31,-2 0.275,0 -0.3145,0.9 -1.31,2 -0.9955,1.1 -2.035,2 -2.31,2 -0.275,0 0.3145,-0.9 1.31,-2 z m -1225.62756,-1.75 c -1.24387,-1.5861 -1.2085,-1.6214 0.37756,-0.3776 1.66575,1.3064 2.19548,2.1276 1.37244,2.1276 -0.20765,0 -0.99515,-0.7875 -1.75,-1.75 z M 1585,1487.6224 c 0,-0.2076 0.7875,-0.9951 1.75,-1.75 1.5861,-1.2438 1.6214,-1.2085 0.3776,0.3776 -1.3064,1.6657 -2.1276,2.1955 -2.1276,1.3724 z M 335.87244,1485.25 c -1.24387,-1.5861 -1.2085,-1.6214 0.37756,-0.3776 1.66575,1.3064 2.19548,2.1276 1.37244,2.1276 -0.20765,0 -0.99515,-0.7875 -1.75,-1.75 z M 1590,1481.6224 c 0,-0.2076 0.7875,-0.9951 1.75,-1.75 1.5861,-1.2438 1.6214,-1.2085 0.3776,0.3776 -1.3064,1.6657 -2.1276,2.1955 -2.1276,1.3724 z M 326.87244,1474.25 c -1.24387,-1.5861 -1.2085,-1.6214 0.37756,-0.3776 0.9625,0.7549 1.75,1.5424 1.75,1.75 0,0.8231 -0.82119,0.2933 -2.12756,-1.3724 z m 275.94006,-69.9331 c 0.72187,-0.2889 1.58438,-0.2534 1.91667,0.079 0.33229,0.3323 -0.25834,0.5687 -1.3125,0.5253 -1.16495,-0.048 -1.4019,-0.285 -0.60417,-0.6042 z m 617.9375,0.021 c 0.6875,-0.2774 1.8125,-0.2774 2.5,0 0.6875,0.2774 0.125,0.5044 -1.25,0.5044 -1.375,0 -1.9375,-0.227 -1.25,-0.5044 z M 559.87244,1380.25 c -1.24387,-1.5861 -1.2085,-1.6214 0.37756,-0.3776 1.66575,1.3064 2.19548,2.1276 1.37244,2.1276 -0.20765,0 -0.99515,-0.7875 -1.75,-1.75 z m 719.37976,-37.75 c 0.011,-2.2 0.2159,-2.9823 0.4551,-1.7383 0.2392,1.2439 0.2301,3.0439 -0.02,4 -0.2503,0.956 -0.446,-0.062 -0.4349,-2.2617 z m -733.75741,-378 c 0,-208.45 0.11484,-293.87412 0.25519,-189.83138 0.14036,104.04274 0.14036,274.59278 10e-6,378.99998 -0.14035,104.4073 -0.25519,19.2814 -0.2552,-189.1686 z m 87.99935,132.25 -31.99414,-32.25 32.25,31.9941 c 29.9718,29.7341 32.70001,32.5059 31.99414,32.5059 -0.14072,0 -14.65322,-14.5125 -32.25,-32.25 z M 746,1064.5 c 35.4718,-35.475 64.71919,-64.5 64.99419,-64.5 0.275,0 -28.52239,29.025 -63.99419,64.5 -35.4718,35.475 -64.71919,64.5 -64.99419,64.5 -0.275,0 28.52239,-29.025 63.99419,-64.5 z m -584.92105,54.9167 c 0.048,-1.165 0.28494,-1.4019 0.60416,-0.6042 0.28887,0.7219 0.25335,1.5844 -0.0789,1.9167 -0.3323,0.3323 -0.56864,-0.2584 -0.52522,-1.3125 z m 1601.99995,-6 c 0.048,-1.165 0.285,-1.4019 0.6042,-0.6042 0.2889,0.7219 0.2534,1.5844 -0.079,1.9167 -0.3323,0.3323 -0.5687,-0.2584 -0.5253,-1.3125 z M 643.99364,1082.25 614.5,1052.5 l 29.74501,29.4887 29.74502,29.4886 11.75498,-11.4886 L 697.5,1088.5 l -11.48369,11.75 c -6.31603,6.4625 -11.71889,11.75 -12.00635,11.75 -0.28747,0 -13.79481,-13.3875 -30.01632,-29.75 z m -485.91469,21.1667 c 0.048,-1.165 0.28494,-1.4019 0.60416,-0.6042 0.28887,0.7219 0.25335,1.5844 -0.0789,1.9167 -0.3323,0.3323 -0.56864,-0.2584 -0.52522,-1.3125 z m 1606.99995,-1 c 0.048,-1.165 0.285,-1.4019 0.6042,-0.6042 0.2889,0.7219 0.2534,1.5844 -0.079,1.9167 -0.3323,0.3323 -0.5687,-0.2584 -0.5253,-1.3125 z m -1607.99995,-5 c 0.048,-1.165 0.28494,-1.4019 0.60416,-0.6042 0.28887,0.7219 0.25335,1.5844 -0.0789,1.9167 -0.3323,0.3323 -0.56864,-0.2584 -0.52522,-1.3125 z m 1608.99995,-1 c 0.048,-1.165 0.285,-1.4019 0.6042,-0.6042 0.2889,0.7219 0.2534,1.5844 -0.079,1.9167 -0.3323,0.3323 -0.5687,-0.2584 -0.5253,-1.3125 z m -1609.99995,-5 c 0.048,-1.165 0.28494,-1.4019 0.60416,-0.6042 0.28887,0.7219 0.25335,1.5844 -0.0789,1.9167 -0.3323,0.3323 -0.56864,-0.2584 -0.52522,-1.3125 z m 1610.99995,-1 c 0.048,-1.165 0.285,-1.4019 0.6042,-0.6042 0.2889,0.7219 0.2534,1.5844 -0.079,1.9167 -0.3323,0.3323 -0.5687,-0.2584 -0.5253,-1.3125 z M 707.98213,1077.75 c 5.76518,-5.9125 10.60268,-10.75 10.75,-10.75 0.72221,0 -0.4973,1.2818 -10.48213,11.0179 L 697.5,1088.5 Z m -552.90318,7.6667 c 0.048,-1.165 0.28494,-1.4019 0.60416,-0.6042 0.28887,0.7219 0.25335,1.5844 -0.0789,1.9167 -0.3323,0.3323 -0.56864,-0.2584 -0.52522,-1.3125 z m 1612.99995,-1 c 0.048,-1.165 0.285,-1.4019 0.6042,-0.6042 0.2889,0.7219 0.2534,1.5844 -0.079,1.9167 -0.3323,0.3323 -0.5687,-0.2584 -0.5253,-1.3125 z M 836.87244,1082.25 c -1.24387,-1.5861 -1.2085,-1.6214 0.37756,-0.3776 1.66575,1.3064 2.19548,2.1276 1.37244,2.1276 -0.20765,0 -0.99515,-0.7875 -1.75,-1.75 z m -682.79349,-3.8333 c 0.048,-1.165 0.28494,-1.4019 0.60416,-0.6042 0.28887,0.7219 0.25335,1.5844 -0.0789,1.9167 -0.3323,0.3323 -0.56864,-0.2584 -0.52522,-1.3125 z m -1,-7 c 0.048,-1.165 0.28494,-1.4019 0.60416,-0.6042 0.28887,0.7219 0.25335,1.5844 -0.0789,1.9167 -0.3323,0.3323 -0.56864,-0.2584 -0.52522,-1.3125 z M 1201.8724,1070.25 c -1.2438,-1.5861 -1.2085,-1.6214 0.3776,-0.3776 0.9625,0.7549 1.75,1.5424 1.75,1.75 0,0.8231 -0.8212,0.2933 -2.1276,-1.3724 z m 568.2065,-0.8333 c 0.048,-1.165 0.285,-1.4019 0.6042,-0.6042 0.2889,0.7219 0.2534,1.5844 -0.079,1.9167 -0.3323,0.3323 -0.5687,-0.2584 -0.5253,-1.3125 z M 930.75,1067.2501 c 49.0875,-0.1435 129.4125,-0.1435 178.5,0 49.0875,0.1434 8.925,0.2608 -89.25,0.2608 -98.175,0 -138.3375,-0.1174 -89.25,-0.2608 z m -778.67105,-3.8334 c 0.048,-1.165 0.28494,-1.4019 0.60416,-0.6042 0.28887,0.7219 0.25335,1.5844 -0.0789,1.9167 -0.3323,0.3323 -0.56864,-0.2584 -0.52522,-1.3125 z M 1771.1579,1062 c 0,-1.375 0.227,-1.9375 0.5044,-1.25 0.2774,0.6875 0.2774,1.8125 0,2.5 -0.2774,0.6875 -0.5044,0.125 -0.5044,-1.25 z m -1620.07895,-7.5833 c 0.048,-1.165 0.28494,-1.4019 0.60416,-0.6042 0.28887,0.7219 0.25335,1.5844 -0.0789,1.9167 -0.3323,0.3323 -0.56864,-0.2584 -0.52522,-1.3125 z M 1772.1579,1053 c 0,-1.375 0.227,-1.9375 0.5044,-1.25 0.2774,0.6875 0.2774,1.8125 0,2.5 -0.2774,0.6875 -0.5044,0.125 -0.5044,-1.25 z M 608.75,1051.3377 c 0.6875,-0.2774 1.8125,-0.2774 2.5,0 0.6875,0.2774 0.125,0.5044 -1.25,0.5044 -1.375,0 -1.9375,-0.227 -1.25,-0.5044 z M 747.5,1038 c 7.13413,-7.15 13.19614,-13 13.47114,-13 0.275,0 -5.33701,5.85 -12.47114,13 -7.13413,7.15 -13.19614,13 -13.47114,13 -0.275,0 5.33701,-5.85 12.47114,-13 z m -597.34211,8 c 0,-1.375 0.22698,-1.9375 0.50439,-1.25 0.27741,0.6875 0.27741,1.8125 0,2.5 -0.27741,0.6875 -0.50439,0.125 -0.50439,-1.25 z m 1623.00001,-2 c 0,-1.375 0.227,-1.9375 0.5044,-1.25 0.2774,0.6875 0.2774,1.8125 0,2.5 -0.2774,0.6875 -0.5044,0.125 -0.5044,-1.25 z m -1624.00001,-9 c 0,-1.375 0.22698,-1.9375 0.50439,-1.25 0.27741,0.6875 0.27741,1.8125 0,2.5 -0.27741,0.6875 -0.50439,0.125 -0.50439,-1.25 z m 1625.00001,-2 c 0,-1.375 0.227,-1.9375 0.5044,-1.25 0.2774,0.6875 0.2774,1.8125 0,2.5 -0.2774,0.6875 -0.5044,0.125 -0.5044,-1.25 z M 148.232,1023 c 0,-1.925 0.2058,-2.7125 0.45733,-1.75 0.25152,0.9625 0.25152,2.5375 0,3.5 -0.25153,0.9625 -0.45733,0.175 -0.45733,-1.75 z M 772.5,1013 c 6.03124,-6.05 11.19089,-11 11.46589,-11 0.275,0 -4.43465,4.95 -10.46589,11 -6.03124,6.05 -11.19089,11 -11.46589,11 -0.275,0 4.43465,-4.95 10.46589,-11 z m 1002.7522,7.5 c 0.011,-2.2 0.2159,-2.9823 0.4551,-1.7383 0.2392,1.2439 0.2301,3.0439 -0.02,4 -0.2503,0.956 -0.446,-0.062 -0.4349,-2.2617 z m -1628.00002,-13 c 0.0111,-2.2 0.21589,-2.9823 0.45508,-1.7383 0.23919,1.2439 0.23011,3.0439 -0.0202,4 -0.25029,0.956 -0.446,-0.062 -0.4349,-2.2617 z M 1776.2724,1004 c 0,-2.475 0.195,-3.4875 0.4333,-2.25 0.2384,1.2375 0.2384,3.2625 0,4.5 -0.2383,1.2375 -0.4333,0.225 -0.4333,-2.25 z M 146.37407,978.5 c 0.002,-6.05 0.16696,-8.39607 0.36601,-5.21349 0.19905,3.18258 0.1972,8.13258 -0.004,11 -0.20131,2.86742 -0.36417,0.26349 -0.36191,-5.78651 z m 1631.05473,-17 c 7e-4,-12.65 0.144,-17.68711 0.3185,-11.19358 0.1744,6.49353 0.1738,16.84353 0,23 -0.1752,6.15647 -0.3179,0.84358 -0.3172,-11.80642 z m -1631.05473,-16 c 0.002,-6.05 0.16696,-8.39607 0.36601,-5.21349 0.19905,3.18258 0.1972,8.13258 -0.004,11 -0.20131,2.86742 -0.36417,0.26349 -0.36191,-5.78651 z M 633.49414,905.75 601.5,873.5 633.75,905.49414 C 663.7218,935.22816 666.45001,938 665.74414,938 c -0.14072,0 -14.65322,-14.5125 -32.25,-32.25 z M 689.5,930 c 4.37419,-4.4 8.17808,-8 8.45308,-8 0.275,0 -3.07889,3.6 -7.45308,8 -4.37419,4.4 -8.17808,8 -8.45308,8 -0.275,0 3.07889,-3.6 7.45308,-8 z m 1086.7724,-10 c 0,-2.475 0.195,-3.4875 0.4333,-2.25 0.2384,1.2375 0.2384,3.2625 0,4.5 -0.2383,1.2375 -0.4333,0.225 -0.4333,-2.25 z M 754.5,865 c 30.79632,-30.8 56.2183,-56 56.4933,-56 0.275,0 -24.69698,25.2 -55.4933,56 -30.79632,30.8 -56.2183,56 -56.4933,56 -0.275,0 24.69698,-25.2 55.4933,-56 z m -607.24782,51.5 c 0.0111,-2.2 0.21589,-2.98225 0.45508,-1.73834 0.23919,1.24391 0.23011,3.04391 -0.0202,4 -0.25029,0.95609 -0.446,-0.0617 -0.4349,-2.26166 z m 521.20077,-0.75 -3.95295,-4.25 4.25,3.95295 c 3.95246,3.6762 4.70953,4.54705 3.95295,4.54705 -0.16338,0 -2.07588,-1.9125 -4.25,-4.25 z M 1775.2522,903.5 c 0.011,-2.2 0.2159,-2.98225 0.4551,-1.73834 0.2392,1.24391 0.2301,3.04391 -0.02,4 -0.2503,0.95609 -0.446,-0.0617 -0.4349,-2.26166 z M 148.232,901 c 0,-1.925 0.2058,-2.7125 0.45733,-1.75 0.25152,0.9625 0.25152,2.5375 0,3.5 -0.25153,0.9625 -0.45733,0.175 -0.45733,-1.75 z m 1625.9259,-10 c 0,-1.375 0.227,-1.9375 0.5044,-1.25 0.2774,0.6875 0.2774,1.8125 0,2.5 -0.2774,0.6875 -0.5044,0.125 -0.5044,-1.25 z M 149.15789,889 c 0,-1.375 0.22698,-1.9375 0.50439,-1.25 0.27741,0.6875 0.27741,1.8125 0,2.5 -0.27741,0.6875 -0.50439,0.125 -0.50439,-1.25 z M 930.75,890.25007 c 49.0875,-0.14345 129.4125,-0.14345 178.5,0 49.0875,0.14345 8.925,0.26082 -89.25,0.26082 -98.175,0 -138.3375,-0.11737 -89.25,-0.26082 z M 1201,888.62244 c 0,-0.20765 0.7875,-0.99515 1.75,-1.75 1.5861,-1.24387 1.6214,-1.2085 0.3776,0.37756 -1.3064,1.66575 -2.1276,2.19548 -2.1276,1.37244 z M 1773.1949,879.5 c 0.02,-1.65 0.2445,-2.20394 0.4981,-1.23097 0.2535,0.97297 0.2369,2.32297 -0.037,3 -0.2739,0.67703 -0.4813,-0.11903 -0.461,-1.76903 z M 150.15789,878 c 0,-1.375 0.22698,-1.9375 0.50439,-1.25 0.27741,0.6875 0.27741,1.8125 0,2.5 -0.27741,0.6875 -0.50439,0.125 -0.50439,-1.25 z M 836,876.62244 c 0,-0.20765 0.7875,-0.99515 1.75,-1.75 1.58606,-1.24387 1.62143,-1.2085 0.37756,0.37756 C 836.82119,876.91575 836,877.44548 836,876.62244 Z m 936.0789,-6.20577 c 0.048,-1.16495 0.285,-1.4019 0.6042,-0.60417 0.2889,0.72187 0.2534,1.58438 -0.079,1.91667 -0.3323,0.33229 -0.5687,-0.25834 -0.5253,-1.3125 z M 151.15789,869 c 0,-1.375 0.22698,-1.9375 0.50439,-1.25 0.27741,0.6875 0.27741,1.8125 0,2.5 -0.27741,0.6875 -0.50439,0.125 -0.50439,-1.25 z m 1620.00001,-7 c 0,-1.375 0.227,-1.9375 0.5044,-1.25 0.2774,0.6875 0.2774,1.8125 0,2.5 -0.2774,0.6875 -0.5044,0.125 -0.5044,-1.25 z M 152.07895,860.41667 c 0.048,-1.16495 0.28494,-1.4019 0.60416,-0.60417 0.28887,0.72187 0.25335,1.58438 -0.0789,1.91667 -0.3323,0.33229 -0.56864,-0.25834 -0.52522,-1.3125 z m 1,-8 c 0.048,-1.16495 0.28494,-1.4019 0.60416,-0.60417 0.28887,0.72187 0.25335,1.58438 -0.0789,1.91667 -0.3323,0.33229 -0.56864,-0.25834 -0.52522,-1.3125 z m 1615.99995,-6 c 0.048,-1.16495 0.285,-1.4019 0.6042,-0.60417 0.2889,0.72187 0.2534,1.58438 -0.079,1.91667 -0.3323,0.33229 -0.5687,-0.25834 -0.5253,-1.3125 z m -1614.99995,-1 c 0.048,-1.16495 0.28494,-1.4019 0.60416,-0.60417 0.28887,0.72187 0.25335,1.58438 -0.0789,1.91667 -0.3323,0.33229 -0.56864,-0.25834 -0.52522,-1.3125 z m 1613.99995,-6 c 0.048,-1.16495 0.285,-1.4019 0.6042,-0.60417 0.2889,0.72187 0.2534,1.58438 -0.079,1.91667 -0.3323,0.33229 -0.5687,-0.25834 -0.5253,-1.3125 z m -1612.99995,-1 c 0.048,-1.16495 0.28494,-1.4019 0.60416,-0.60417 0.28887,0.72187 0.25335,1.58438 -0.0789,1.91667 -0.3323,0.33229 -0.56864,-0.25834 -0.52522,-1.3125 z m 1611.99995,-5 c 0.048,-1.16495 0.285,-1.4019 0.6042,-0.60417 0.2889,0.72187 0.2534,1.58438 -0.079,1.91667 -0.3323,0.33229 -0.5687,-0.25834 -0.5253,-1.3125 z m -1610.99995,-1 c 0.048,-1.16495 0.28494,-1.4019 0.60416,-0.60417 0.28887,0.72187 0.25335,1.58438 -0.0789,1.91667 -0.3323,0.33229 -0.56864,-0.25834 -0.52522,-1.3125 z m 1609.99995,-5 c 0.048,-1.16495 0.285,-1.4019 0.6042,-0.60417 0.2889,0.72187 0.2534,1.58438 -0.079,1.91667 -0.3323,0.33229 -0.5687,-0.25834 -0.5253,-1.3125 z m -2,-12 c 0.048,-1.16495 0.285,-1.4019 0.6042,-0.60417 0.2889,0.72187 0.2534,1.58438 -0.079,1.91667 -0.3323,0.33229 -0.5687,-0.25834 -0.5253,-1.3125 z M 673.26903,750.30701 c 0.97297,-0.25354 2.32297,-0.23687 3,0.0371 0.67703,0.27393 -0.11903,0.48137 -1.76903,0.46099 -1.65,-0.0204 -2.20394,-0.2445 -1.23097,-0.49804 z M 652.4866,732.75 638.5,718.5 652.75,732.4866 C 665.9876,745.47952 667.45289,747 666.7366,747 c -0.14487,0 -6.55737,-6.4125 -14.25,-14.25 z M 745.5,682 c 35.19678,-35.2 64.21914,-64 64.49414,-64 0.275,0 -28.29736,28.8 -63.49414,64 -35.19678,35.2 -64.21914,64 -64.49414,64 -0.275,0 28.29736,-28.8 63.49414,-64 z M 643.49375,698.75 613.5,668.5 l 30.25161,29.99536 30.25162,29.99536 62.24838,-61.99536 L 798.5,604.5 736.50302,666.75 C 702.40469,700.9875 674.27687,729 673.99677,729 c -0.2801,0 -14.00646,-13.6125 -30.50302,-30.25 z M 841.8125,678.31689 c 0.72187,-0.28887 1.58438,-0.25335 1.91667,0.0789 0.33229,0.33229 -0.25834,0.56864 -1.3125,0.52522 -1.16495,-0.048 -1.4019,-0.28494 -0.60417,-0.60416 z m 355,0 c 0.7219,-0.28887 1.5844,-0.25335 1.9167,0.0789 0.3323,0.33229 -0.2584,0.56864 -1.3125,0.52522 -1.165,-0.048 -1.4019,-0.28494 -0.6042,-0.60416 z M 608.26903,668.30701 c 0.97297,-0.25354 2.32297,-0.23687 3,0.0371 0.67703,0.27393 -0.11903,0.48137 -1.76903,0.46099 -1.65,-0.0204 -2.20394,-0.2445 -1.23097,-0.49804 z M 808.87244,606.25 c -1.24387,-1.58606 -1.2085,-1.62143 0.37756,-0.37756 0.9625,0.75485 1.75,1.54235 1.75,1.75 0,0.82304 -0.82119,0.29331 -2.12756,-1.37244 z M 1279.2522,586.5 c 0.011,-2.2 0.2159,-2.98225 0.4551,-1.73834 0.2392,1.24391 0.2301,3.04391 -0.02,4 -0.2503,0.95609 -0.446,-0.0617 -0.4349,-2.26166 z M 568,540.62244 c 0,-0.20765 0.7875,-0.99515 1.75,-1.75 1.58606,-1.24387 1.62143,-1.2085 0.37756,0.37756 C 568.82119,540.91575 568,541.44548 568,540.62244 Z m 35.75,-16.28472 c 0.6875,-0.27741 1.8125,-0.27741 2.5,0 0.6875,0.27741 0.125,0.50439 -1.25,0.50439 -1.375,0 -1.9375,-0.22698 -1.25,-0.50439 z m 616.0625,-0.0208 c 0.7219,-0.28887 1.5844,-0.25335 1.9167,0.0789 0.3323,0.33229 -0.2584,0.56864 -1.3125,0.52522 -1.165,-0.048 -1.4019,-0.28494 -0.6042,-0.60416 z M 1586.8724,438.25 c -1.2438,-1.58606 -1.2085,-1.62143 0.3776,-0.37756 1.6657,1.30637 2.1955,2.12756 1.3724,2.12756 -0.2076,0 -0.9951,-0.7875 -1.75,-1.75 z M 339,434.62244 c 0,-0.20765 0.7875,-0.99515 1.75,-1.75 1.58606,-1.24387 1.62143,-1.2085 0.37756,0.37756 C 339.82119,434.91575 339,435.44548 339,434.62244 Z M 1581.8724,432.25 c -1.2438,-1.58606 -1.2085,-1.62143 0.3776,-0.37756 1.6657,1.30637 2.1955,2.12756 1.3724,2.12756 -0.2076,0 -0.9951,-0.7875 -1.75,-1.75 z M 346.5,426 c 0.99549,-1.1 2.03498,-2 2.30998,-2 0.275,0 -0.31449,0.9 -1.30998,2 -0.99549,1.1 -2.03498,2 -2.30998,2 -0.275,0 0.31449,-0.9 1.30998,-2 z m 1228.905,-1.25 -1.905,-2.25 2.25,1.90499 c 2.1144,1.79022 2.7052,2.59501 1.905,2.59501 -0.1898,0 -1.2023,-1.0125 -2.25,-2.25 z M 353.5,418 c 0.99549,-1.1 2.03498,-2 2.30998,-2 0.275,0 -0.31449,0.9 -1.30998,2 -0.99549,1.1 -2.03498,2 -2.30998,2 -0.275,0 0.31449,-0.9 1.30998,-2 z m 1213.905,-2.25 -1.905,-2.25 2.25,1.90499 c 2.1144,1.79022 2.7052,2.59501 1.905,2.59501 -0.1898,0 -1.2023,-1.0125 -2.25,-2.25 z M 362,408.68709 c 0,-0.1721 1.4625,-1.6346 3.25,-3.25 l 3.25,-2.93709 -2.93709,3.25 C 362.82513,408.77946 362,409.45965 362,408.68709 Z M 1555.9462,403.25 1552.5,399.5 l 3.75,3.44617 c 3.4904,3.20761 4.2098,4.05383 3.4462,4.05383 -0.1671,0 -1.8546,-1.6875 -3.75,-3.75 z m -36,-36 -3.4462,-3.75 3.75,3.44617 c 3.4904,3.20761 4.2098,4.05383 3.4462,4.05383 -0.1671,0 -1.8546,-1.6875 -3.75,-3.75 z M 403,367.68709 c 0,-0.1721 1.4625,-1.6346 3.25,-3.25 l 3.25,-2.93709 -2.93709,3.25 C 403.82513,367.77946 403,368.45965 403,367.68709 Z M 1506.8724,355.25 c -1.2438,-1.58606 -1.2085,-1.62143 0.3776,-0.37756 1.6657,1.30637 2.1955,2.12756 1.3724,2.12756 -0.2076,0 -0.9951,-0.7875 -1.75,-1.75 z M 417.5,354 c 0.99549,-1.1 2.03498,-2 2.30998,-2 0.275,0 -0.31449,0.9 -1.30998,2 -0.99549,1.1 -2.03498,2 -2.30998,2 -0.275,0 0.31449,-0.9 1.30998,-2 z m 1080.905,-6.25 -1.905,-2.25 2.25,1.90499 c 2.1144,1.79022 2.7052,2.59501 1.905,2.59501 -0.1898,0 -1.2023,-1.0125 -2.25,-2.25 z M 425,347.62244 c 0,-0.20765 0.7875,-0.99515 1.75,-1.75 1.58606,-1.24387 1.62143,-1.2085 0.37756,0.37756 C 425.82119,347.91575 425,348.44548 425,347.62244 Z M 1490.8724,341.25 c -1.2438,-1.58606 -1.2085,-1.62143 0.3776,-0.37756 1.6657,1.30637 2.1955,2.12756 1.3724,2.12756 -0.2076,0 -0.9951,-0.7875 -1.75,-1.75 z M 432,341.62244 c 0,-0.20765 0.7875,-0.99515 1.75,-1.75 1.58606,-1.24387 1.62143,-1.2085 0.37756,0.37756 C 432.82119,341.91575 432,342.44548 432,341.62244 Z M 1478.8724,331.25 c -1.2438,-1.58606 -1.2085,-1.62143 0.3776,-0.37756 1.6657,1.30637 2.1955,2.12756 1.3724,2.12756 -0.2076,0 -0.9951,-0.7875 -1.75,-1.75 z M 444,331.62244 c 0,-0.20765 0.7875,-0.99515 1.75,-1.75 1.58606,-1.24387 1.62143,-1.2085 0.37756,0.37756 C 444.82119,331.91575 444,332.44548 444,331.62244 Z M 813.8125,159.31689 c 0.72187,-0.28887 1.58438,-0.25335 1.91667,0.0789 0.33229,0.33229 -0.25834,0.56864 -1.3125,0.52522 -1.16495,-0.048 -1.4019,-0.28494 -0.60417,-0.60416 z m 6,-1 c 0.72187,-0.28887 1.58438,-0.25335 1.91667,0.0789 0.33229,0.33229 -0.25834,0.56864 -1.3125,0.52522 -1.16495,-0.048 -1.4019,-0.28494 -0.60417,-0.60416 z m 283,0 c 0.7219,-0.28887 1.5844,-0.25335 1.9167,0.0789 0.3323,0.33229 -0.2584,0.56864 -1.3125,0.52522 -1.165,-0.048 -1.4019,-0.28494 -0.6042,-0.60416 z m -12,-2 c 0.7219,-0.28887 1.5844,-0.25335 1.9167,0.0789 0.3323,0.33229 -0.2584,0.56864 -1.3125,0.52522 -1.165,-0.048 -1.4019,-0.28494 -0.6042,-0.60416 z m -253,-1 c 0.72187,-0.28887 1.58438,-0.25335 1.91667,0.0789 0.33229,0.33229 -0.25834,0.56864 -1.3125,0.52522 -1.16495,-0.048 -1.4019,-0.28494 -0.60417,-0.60416 z m 247,0 c 0.7219,-0.28887 1.5844,-0.25335 1.9167,0.0789 0.3323,0.33229 -0.2584,0.56864 -1.3125,0.52522 -1.165,-0.048 -1.4019,-0.28494 -0.6042,-0.60416 z m -240,-1 c 0.72187,-0.28887 1.58438,-0.25335 1.91667,0.0789 0.33229,0.33229 -0.25834,0.56864 -1.3125,0.52522 -1.16495,-0.048 -1.4019,-0.28494 -0.60417,-0.60416 z m 233,0 c 0.7219,-0.28887 1.5844,-0.25335 1.9167,0.0789 0.3323,0.33229 -0.2584,0.56864 -1.3125,0.52522 -1.165,-0.048 -1.4019,-0.28494 -0.6042,-0.60416 z m -226,-1 c 0.72187,-0.28887 1.58438,-0.25335 1.91667,0.0789 0.33229,0.33229 -0.25834,0.56864 -1.3125,0.52522 -1.16495,-0.048 -1.4019,-0.28494 -0.60417,-0.60416 z m 219,0 c 0.7219,-0.28887 1.5844,-0.25335 1.9167,0.0789 0.3323,0.33229 -0.2584,0.56864 -1.3125,0.52522 -1.165,-0.048 -1.4019,-0.28494 -0.6042,-0.60416 z m -211,-1 c 0.72187,-0.28887 1.58438,-0.25335 1.91667,0.0789 0.33229,0.33229 -0.25834,0.56864 -1.3125,0.52522 -1.16495,-0.048 -1.4019,-0.28494 -0.60417,-0.60416 z m 203,0 c 0.7219,-0.28887 1.5844,-0.25335 1.9167,0.0789 0.3323,0.33229 -0.2584,0.56864 -1.3125,0.52522 -1.165,-0.048 -1.4019,-0.28494 -0.6042,-0.60416 z m -195,-1 c 0.72187,-0.28887 1.58438,-0.25335 1.91667,0.0789 0.33229,0.33229 -0.25834,0.56864 -1.3125,0.52522 -1.16495,-0.048 -1.4019,-0.28494 -0.60417,-0.60416 z m 185.9375,0.0208 c 0.6875,-0.27741 1.8125,-0.27741 2.5,0 0.6875,0.27741 0.125,0.50439 -1.25,0.50439 -1.375,0 -1.9375,-0.22698 -1.25,-0.50439 z m -177,-1 c 0.6875,-0.27741 1.8125,-0.27741 2.5,0 0.6875,0.27741 0.125,0.50439 -1.25,0.50439 -1.375,0 -1.9375,-0.22698 -1.25,-0.50439 z m 168,0 c 0.6875,-0.27741 1.8125,-0.27741 2.5,0 0.6875,0.27741 0.125,0.50439 -1.25,0.50439 -1.375,0 -1.9375,-0.22698 -1.25,-0.50439 z m -157.48097,-1.03071 c 0.97297,-0.25354 2.32297,-0.23687 3,0.0371 0.67703,0.27393 -0.11903,0.48137 -1.76903,0.46099 -1.65,-0.0204 -2.20394,-0.2445 -1.23097,-0.49804 z m 146.99997,0 c 0.973,-0.25354 2.323,-0.23687 3,0.0371 0.6771,0.27393 -0.119,0.48137 -1.769,0.46099 -1.65,-0.0204 -2.2039,-0.2445 -1.231,-0.49804 z M 899.25,148.31067 c 0.9625,-0.25152 2.5375,-0.25152 3.5,0 0.9625,0.25153 0.175,0.45733 -1.75,0.45733 -1.925,0 -2.7125,-0.2058 -1.75,-0.45733 z m 122,0 c 0.9625,-0.25152 2.5375,-0.25152 3.5,0 0.9625,0.25153 0.175,0.45733 -1.75,0.45733 -1.925,0 -2.7125,-0.2058 -1.75,-0.45733 z m -106.48834,-1.01793 c 1.24391,-0.23919 3.04391,-0.23011 4,0.0202 0.95609,0.25029 -0.0617,0.446 -2.26166,0.4349 -2.2,-0.0111 -2.98225,-0.21589 -1.73834,-0.45508 z m 90.48834,0.0179 c 0.9625,-0.25152 2.5375,-0.25152 3.5,0 0.9625,0.25153 0.175,0.45733 -1.75,0.45733 -1.925,0 -2.7125,-0.2058 -1.75,-0.45733 z m -63.96349,-1.05075 c 3.18258,-0.19905 8.13258,-0.1972 11,0.004 2.86742,0.20131 0.26349,0.36417 -5.78651,0.36191 -6.05,-0.002 -8.39607,-0.16696 -5.21349,-0.36601 z m 31,0 c 3.18258,-0.19905 8.13258,-0.1972 11,0.004 2.86742,0.20131 0.26349,0.36417 -5.78651,0.36191 -6.05,-0.002 -8.39607,-0.16696 -5.21349,-0.36601 z"
         id="path8" />
      <path
         style="fill:#c9b9ae"
         d="m 991.84547,1476.6594 c 3.74112,-3.8598 3.9312,-5.6116 0.90453,-8.3363 -4.15303,-3.7388 -4.75492,-3.7242 -8.78651,0.2125 l -3.85597,3.7653 3.31262,-12.4004 c 8.34145,-31.2254 20.53786,-77.6627 21.05086,-80.1505 0.3119,-1.5125 0.8982,-2.75 1.3029,-2.75 0.4046,0 18.2524,17.521 39.6617,38.9356 37.7564,37.7657 38.8379,38.9545 35.9952,39.5653 -2.5563,0.5493 -22.8758,5.8913 -78.3353,20.5943 l -14.40456,3.8189 z M 1021.5,1360 c 8.2362,-8.25 15.2,-15 15.475,-15 0.275,0 -6.2388,6.75 -14.475,15 -8.2362,8.25 -15.2,15 -15.475,15 -0.275,0 6.2388,-6.75 14.475,-15 z m 47.5,-47.5 c 17.3185,-17.325 31.7131,-31.5 31.9881,-31.5 0.275,0 -13.6696,14.175 -30.9881,31.5 -17.3185,17.325 -31.7131,31.5 -31.9881,31.5 -0.275,0 13.6696,-14.175 30.9881,-31.5 z m 59,-59 c 14.5672,-14.575 26.7108,-26.5 26.9858,-26.5 0.275,0 -11.4186,11.925 -25.9858,26.5 -14.5672,14.575 -26.7108,26.5 -26.9858,26.5 -0.275,0 11.4186,-11.925 25.9858,-26.5 z M 1256.5,1125 c 12.641,-12.65 23.2087,-23 23.4837,-23 0.275,0 -9.8427,10.35 -22.4837,23 -12.641,12.65 -23.2087,23 -23.4837,23 -0.275,0 9.8427,-10.35 22.4837,-23 z"
         id="path7" />
      <path
         style="fill:#eebd5d"
         d="m 1025.2442,1395.7445 -19.2365,-19.2555 113.9922,-113.9889 113.9921,-113.9888 19.508,19.4887 19.508,19.4887 -113.7524,113.7557 C 1096.6918,1363.81 1045.2732,1415 1044.992,1415 c -0.2812,0 -9.1677,-8.665 -19.7478,-19.2555 z"
         id="path6" />
      <path
         style="fill:#d5ae60"
         d="m 1064.2442,1434.7445 -19.2365,-19.2555 113.9922,-113.9889 113.9921,-113.9888 19.5088,19.4895 19.5087,19.4895 -113.7547,113.7534 c -62.5652,62.5644 -113.9841,113.7541 -114.2644,113.7549 -0.2803,8e-4 -9.1661,-8.6636 -19.7462,-19.2541 z"
         id="path5" />
      <path
         style="fill:#3eb5ab"
         d="m 920.5,1776.4109 c -2.2,-0.2036 -10.975,-0.8587 -19.5,-1.4557 -106.14582,-7.4333 -213.9458,-37.521 -309,-86.2439 C 516.1559,1649.8351 449.70658,1601.8769 389.90427,1542.8535 357.96559,1511.3309 335.36943,1485.555 309.81997,1451.5 208.39876,1316.315 152.2879,1156.5733 147.09891,988.25 144.00696,887.95199 158.08772,792.6901 189.85324,699 238.60003,555.2249 328.09781,426.63096 447,329.5214 514.10324,274.71697 595.64538,227.84518 675.5,198.17574 777.03313,160.4518 878.51751,143.8882 988.28994,147.12424 1139.4406,151.58011 1285.0919,197.82171 1411.5,281.48567 1568.9332,385.68377 1685.7295,541.41468 1741.1304,721 c 17.7877,57.66 28.4775,113.96581 34.0785,179.5 1.7495,20.46939 1.728,101.719 -0.033,123 -11.913,144.0022 -56.689,273.8258 -134.7152,390.5931 -101.5047,151.9033 -250.7596,265.6278 -422.9612,322.2745 -60.7264,19.9762 -119.5818,32.0044 -187,38.2169 -15.8209,1.4578 -99.05178,2.8398 -110,1.8264 z m 59.97911,-288.3308 8.02089,-7.9199 12,-3.1679 c 6.6,-1.7423 26.9065,-7.1783 45.1257,-12.0801 18.2191,-4.9017 33.9492,-8.9122 34.9557,-8.9122 1.0567,0 12.6252,-10.7597 27.3744,-25.4605 l 25.5442,-25.4605 47,-0.2929 47,-0.293 7.5,-2.8729 c 17.7386,-6.7948 31.5621,-19.5559 39.0335,-36.0339 5.4774,-12.08 5.9665,-17.3512 5.9665,-64.298 v -42.796 l 49.0673,-48.9961 c 26.9869,-26.9479 49.9369,-50.6658 51,-52.7064 2.3311,-4.475 2.5005,-11.476 0.4008,-16.5719 -2.022,-4.9075 -55.2871,-57.5607 -60.9681,-60.2679 -2.2,-1.0483 -5.35,-1.9134 -7,-1.9225 -6.9879,-0.038 -10.2748,1.8941 -21.4682,12.6201 L 1280,1101.2187 V 843.06717 c 0,-288.34129 0.5719,-265.85615 -7.1722,-281.97734 -5.7467,-11.96295 -17.8205,-24.09338 -29.8278,-29.96752 -15.7196,-7.69025 12.3834,-7.08758 -330.5,-7.08758 -343.1756,0 -314.65875,-0.61806 -330.43564,7.16165 -15.87095,7.82609 -29.1568,24.01906 -34.70887,42.30362 -1.74645,5.75158 -1.83439,21.71255 -2.12393,385.5 -0.21437,269.3374 0.0138,381.929 0.7861,387.8677 3.36576,25.8821 21.28538,47.1595 46.98234,55.786 5.25385,1.7637 14.43325,1.8687 205.10742,2.3463 l 199.60743,0.5 -8.93679,33.5 -8.93678,33.5 -7.92064,8.0209 c -4.35635,4.4115 -7.92064,8.6575 -7.92064,9.4355 0,2.173 4.10103,6.0436 6.40343,6.0436 1.22493,0 5.29418,-3.1986 10.07568,-7.9199 z M 671.5,1133.1228 c -1.1,-0.3455 -17.4125,-16.1848 -36.25,-35.1985 -24.39464,-24.6228 -34.25,-35.2111 -34.25,-36.797 0,-2.9836 2.53953,-7.7366 4.5448,-8.5061 0.89033,-0.3417 3.02742,-0.6212 4.74911,-0.6212 2.77009,0 6.61645,3.4792 33.42379,30.2336 l 30.29347,30.2337 62.76301,-62.7337 C 792.75993,993.77409 799.87156,987 802.63374,987 c 5.78957,0 10.4466,5.90534 8.59797,10.90266 -1.14487,3.09484 -133.10367,134.86134 -135.58892,135.39124 -1.17853,0.2513 -3.04279,0.1743 -4.14279,-0.1711 z m 166.29976,-51.1692 c -2.63379,-2.6338 -2.96609,-3.548 -2.45349,-6.75 0.3261,-2.037 1.55644,-4.4911 2.7341,-5.4536 2.02157,-1.6522 12.18141,-1.75 181.85613,-1.75 h 179.7149 l 2.0253,2.25 c 1.1139,1.2375 2.3129,3.0627 2.6644,4.0559 0.8597,2.4295 -1.6881,8.2743 -4.1907,9.6136 -1.4246,0.7624 -54.6068,1.0805 -180.6616,1.0805 H 840.84615 Z M 671,942.21252 C 670.175,941.81549 654.0875,925.93488 635.25,906.92228 610.707,882.15115 601,871.7183 601,870.11122 c 0,-5.20438 3.77797,-9.03179 8.96212,-9.07942 3.21874,-0.0296 5.59197,2.09385 33.75947,30.20573 l 30.29735,30.23753 62.4708,-62.4648 c 61.48517,-61.47927 62.53296,-62.46481 66.41066,-62.46481 6.13506,0 10.26509,5.12972 8.33366,10.35085 -0.41942,1.13381 -30.68116,32.02942 -67.24832,68.65691 -45.71141,45.78683 -67.2669,66.7182 -68.98574,66.98831 -1.375,0.21608 -3.175,0.068 -4,-0.329 z M 838.08037,888.25 c -1.17766,-0.9625 -2.408,-3.41662 -2.7341,-5.45361 -0.5126,-3.202 -0.1803,-4.1162 2.45349,-6.75 L 840.84615,873 h 179.02115 179.0212 l 2.6484,2.2781 c 3.5836,3.08249 3.8061,8.66342 0.4863,12.19723 L 1199.6514,890 h -179.7149 c -169.67472,0 -179.83456,-0.0978 -181.85613,-1.75 z M 636.45489,715.98422 C 617.79756,697.27554 602.17063,680.99029 601.72838,679.79479 599.66469,674.21609 603.64537,669 609.96646,669 c 3.28402,0 5.56116,2.03889 33.77518,30.24154 l 30.25374,30.24154 62.7709,-62.74154 C 792.75916,610.77486 799.87156,604 802.63374,604 c 5.79636,0 10.44641,5.90584 8.59363,10.91441 -0.42311,1.14376 -30.66393,32.00592 -67.20182,68.58258 C 680.65286,746.93691 677.42685,750 673.98517,750 c -3.40827,0 -5.48452,-1.88183 -37.53028,-34.01578 z M 840.357,695.00842 C 837.4842,693.8491 835,690.13536 835,687 c 0,-3.76945 2.57133,-6.78684 6.77948,-7.95556 5.26806,-1.46308 351.27822,-1.43378 356.55042,0.0302 4.8752,1.35376 7.2395,5.9934 5.5394,10.87036 -2.262,6.48894 10.8755,6.06131 -184.0696,5.99161 -97.51485,-0.0349 -178.26405,-0.45255 -179.4427,-0.92819 z"
         id="path4" />
      <path
         style="fill:#e25e50"
         d="m 1272.7378,1187.2379 -38.7525,-38.7621 34.2573,-34.1729 c 23.8417,-23.7828 35.1695,-34.4123 37.2574,-34.9605 4.5826,-1.2031 11.8638,-0.7271 15.0977,0.9871 1.5962,0.8462 15.3736,14.0557 30.6162,29.3545 27.7629,27.8652 30.7934,31.6098 30.7805,38.0339 -0.017,8.4558 -0.6269,9.2144 -35.8082,44.5321 -18.4908,18.5625 -33.8618,33.75 -34.1577,33.75 -0.296,0 -17.9768,-17.4429 -39.2907,-38.7621 z"
         id="path3" />
      <path
         style="fill:#716c67"
         d="M 966.17431,1493.6855 C 964.97844,1492.4126 964,1490.7181 964,1489.9199 c 0,-2.4171 23.57265,-25.292 25.14145,-24.3972 2.89462,1.651 5.85855,4.8979 5.85855,6.4179 0,2.4061 -22.1321,24.0594 -24.59133,24.0594 -1.13302,0 -3.03848,-1.0415 -4.23436,-2.3145 z M 1363.5,1122 c -6.5828,-6.6 -11.7437,-12 -11.4687,-12 0.275,0 5.8859,5.4 12.4687,12 6.5828,6.6 11.7437,12 11.4687,12 -0.275,0 -5.8859,-5.4 -12.4687,-12 z m -75,-29 c 4.9271,-4.95 9.1833,-9 9.4583,-9 0.275,0 -3.5312,4.05 -8.4583,9 -4.9271,4.95 -9.1833,9 -9.4583,9 -0.275,0 3.5312,-4.05 8.4583,-9 z"
         id="path2" />
    </g>
  </g>
</svg>
